<svg width="800" height="800" viewBox="0 0 800 800" fill="none" xmlns="http://www.w3.org/2000/svg">
<path d="M285 438.877L296.129 435.796L287.896 427.699L285 438.877ZM361.6 361L360.887 360.299L359.519 361.689L360.232 362.391L360.945 363.092L362.313 361.701L361.6 361ZM357.497 365.172L356.784 364.471L354.048 367.252L354.761 367.953L355.474 368.655L358.209 365.873L357.497 365.172ZM352.025 370.735L351.312 370.033L348.576 372.815L349.289 373.516L350.002 374.217L352.738 371.436L352.025 370.735ZM346.554 376.297L345.841 375.596L343.105 378.377L343.818 379.079L344.531 379.78L347.267 376.998L346.554 376.297ZM341.082 381.86L340.369 381.159L337.634 383.94L338.347 384.641L339.059 385.342L341.795 382.561L341.082 381.86ZM335.611 387.422L334.898 386.721L332.162 389.503L332.875 390.204L333.588 390.905L336.324 388.124L335.611 387.422ZM330.139 392.985L329.426 392.284L326.691 395.065L327.404 395.766L328.117 396.468L330.852 393.686L330.139 392.985ZM324.668 398.548L323.955 397.846L321.219 400.628L321.932 401.329L322.645 402.03L325.381 399.249L324.668 398.548ZM319.197 404.11L318.484 403.409L315.748 406.19L316.461 406.892L317.174 407.593L319.909 404.812L319.197 404.11ZM313.725 409.673L313.012 408.972L310.276 411.753L310.989 412.454L311.702 413.155L314.438 410.374L313.725 409.673ZM308.254 415.236L307.541 414.534L304.805 417.316L305.518 418.017L306.231 418.718L308.967 415.937L308.254 415.236ZM302.782 420.798L302.069 420.097L299.334 422.878L300.047 423.579L300.759 424.281L303.495 421.499L302.782 420.798ZM297.311 426.361L296.598 425.66L293.862 428.441L294.575 429.142L295.288 429.843L298.024 427.062L297.311 426.361ZM291.839 431.923L291.126 431.222L288.391 434.003L289.104 434.705L289.817 435.406L292.552 432.625L291.839 431.923Z" fill="#6B7280"/>
<path d="M514.8 438.877L511.904 427.699L503.672 435.796L514.8 438.877ZM438.2 361L437.487 361.701L438.855 363.092L439.568 362.391L440.281 361.689L438.913 360.299L438.2 361ZM442.304 365.172L441.591 365.873L444.327 368.655L445.039 367.953L445.752 367.252L443.017 364.471L442.304 365.172ZM447.775 370.735L447.062 371.436L449.798 374.217L450.511 373.516L451.224 372.815L448.488 370.033L447.775 370.735ZM453.247 376.297L452.534 376.998L455.269 379.78L455.982 379.079L456.695 378.377L453.96 375.596L453.247 376.297ZM458.718 381.86L458.005 382.561L460.741 385.342L461.454 384.641L462.167 383.94L459.431 381.159L458.718 381.86ZM464.189 387.422L463.477 388.124L466.212 390.905L466.925 390.204L467.638 389.503L464.902 386.721L464.189 387.422ZM469.661 392.985L468.948 393.686L471.684 396.468L472.397 395.766L473.11 395.065L470.374 392.284L469.661 392.985ZM475.132 398.548L474.419 399.249L477.155 402.03L477.868 401.329L478.581 400.628L475.845 397.846L475.132 398.548ZM480.604 404.11L479.891 404.812L482.627 407.593L483.339 406.892L484.052 406.19L481.317 403.409L480.604 404.11ZM486.075 409.673L485.362 410.374L488.098 413.155L488.811 412.454L489.524 411.753L486.788 408.972L486.075 409.673ZM491.547 415.236L490.834 415.937L493.569 418.718L494.282 418.017L494.995 417.316L492.26 414.534L491.547 415.236ZM497.018 420.798L496.305 421.499L499.041 424.281L499.754 423.579L500.467 422.878L497.731 420.097L497.018 420.798ZM502.489 426.361L501.777 427.062L504.512 429.843L505.225 429.142L505.938 428.441L503.202 425.66L502.489 426.361ZM507.961 431.923L507.248 432.625L509.984 435.406L510.697 434.705L511.41 434.003L508.674 431.222L507.961 431.923Z" fill="#6B7280"/>
<path d="M454.931 229.291C454.931 231.263 453.869 233.08 452.137 234.057C452.137 234.057 416.36 259.463 401.994 260.269C392.669 260.8 367.606 245.714 367.606 245.714V218.834C367.606 218.834 375.663 218.611 385.143 218.834C392 218.989 399.423 222.469 405.114 227.611H417.903C420.989 227.611 423.474 230.097 423.474 233.183C423.474 234.297 423.149 235.326 422.6 236.183V236.2L425.84 234.64L447.08 224.371C450.714 222.623 454.931 225.263 454.931 229.291Z" fill="#6B7280"/>
<path d="M425.84 234.64C424.64 237.486 421.246 239.783 418.486 239.783H393.8C393.32 239.783 392.943 239.406 392.943 238.926C392.943 238.463 393.32 238.069 393.8 238.069H418.486C419.857 238.069 421.4 237.297 422.583 236.2H422.6L425.84 234.64Z" fill="#D7D7D7"/>
<path d="M408.423 217.737C423.136 217.737 435.063 205.81 435.063 191.097C435.063 176.384 423.136 164.457 408.423 164.457C393.71 164.457 381.783 176.384 381.783 191.097C381.783 205.81 393.71 217.737 408.423 217.737Z" fill="#F9A41A"/>
<path d="M414.097 221.08C428.81 221.08 440.737 209.153 440.737 194.44C440.737 179.727 428.81 167.8 414.097 167.8C399.384 167.8 387.457 179.727 387.457 194.44C387.457 209.153 399.384 221.08 414.097 221.08Z" fill="#FBE063"/>
<path d="M414.097 211.994C423.792 211.994 431.652 204.135 431.652 194.44C431.652 184.745 423.792 176.886 414.097 176.886C404.402 176.886 396.543 184.745 396.543 194.44C396.543 204.135 404.402 211.994 414.097 211.994Z" fill="#F9A41A"/>
<path d="M409.503 186.04C410.463 184.994 411.8 184.463 413.515 184.446V182.749H414.732V184.429C416.429 184.549 417.732 185.046 418.64 185.937C419.549 186.829 420.029 187.994 420.063 189.451H417.817C417.766 188.8 417.577 188.234 417.286 187.771C416.755 186.914 415.88 186.451 414.715 186.417V192.64C416.703 193.189 418.04 193.72 418.76 194.2C419.909 195.006 420.492 196.189 420.492 197.766C420.492 200.046 419.755 201.657 418.28 202.617C417.457 203.149 416.275 203.491 414.732 203.663V206.149H413.515V203.663C411.029 203.509 409.332 202.617 408.457 201.023C407.977 200.166 407.72 199 407.72 197.526H409.983C410.052 198.691 410.24 199.549 410.532 200.097C411.063 201.057 412.04 201.606 413.48 201.726V194.731C411.629 194.389 410.275 193.789 409.383 192.983C408.509 192.16 408.063 191.029 408.063 189.571C408.063 188.251 408.543 187.086 409.503 186.04ZM411.217 191.389C411.783 191.869 412.537 192.194 413.48 192.383V186.349C412.366 186.383 411.56 186.726 411.097 187.377C410.635 188.029 410.377 188.697 410.377 189.383C410.377 190.24 410.652 190.909 411.217 191.389ZM417.749 200.166C418.04 199.651 418.177 199.051 418.177 198.383C418.177 197.32 417.783 196.497 416.995 195.949C416.549 195.623 415.777 195.314 414.715 195.023V201.76C416.189 201.709 417.2 201.177 417.749 200.166Z" fill="#FBE063"/>
<path d="M391.76 158.131C391.28 158.131 390.903 157.754 390.903 157.274V150.571C390.903 150.091 391.28 149.714 391.76 149.714C392.24 149.714 392.617 150.091 392.617 150.571V157.274C392.617 157.737 392.24 158.131 391.76 158.131Z" fill="#FBE063"/>
<path d="M401.514 160.943C401.034 160.943 400.657 160.566 400.657 160.086V153.383C400.657 152.903 401.034 152.526 401.514 152.526C401.994 152.526 402.372 152.903 402.372 153.383V160.086C402.372 160.566 401.977 160.943 401.514 160.943Z" fill="#FBE063"/>
<path d="M411.269 158.131C410.789 158.131 410.411 157.754 410.411 157.274V150.571C410.411 150.091 410.789 149.714 411.269 149.714C411.749 149.714 412.126 150.091 412.126 150.571V157.274C412.126 157.737 411.731 158.131 411.269 158.131Z" fill="#FBE063"/>
<path d="M421.006 160.943C420.526 160.943 420.148 160.566 420.148 160.086V153.383C420.148 152.903 420.526 152.526 421.006 152.526C421.486 152.526 421.863 152.903 421.863 153.383V160.086C421.863 160.566 421.486 160.943 421.006 160.943Z" fill="#FBE063"/>
<path d="M430.76 158.131C430.28 158.131 429.903 157.754 429.903 157.274V150.571C429.903 150.091 430.28 149.714 430.76 149.714C431.24 149.714 431.617 150.091 431.617 150.571V157.274C431.617 157.737 431.24 158.131 430.76 158.131Z" fill="#FBE063"/>
<path d="M367.726 217.531V249.623C367.726 251.697 366.046 253.394 363.954 253.394H350.84C348.749 253.394 347.069 251.697 347.069 249.623V217.531C347.069 215.44 348.749 213.76 350.84 213.76H363.954C366.046 213.76 367.726 215.44 367.726 217.531Z" fill="white"/>
<path d="M360.646 248.286C362.303 248.286 363.646 246.943 363.646 245.286C363.646 243.629 362.303 242.286 360.646 242.286C358.989 242.286 357.646 243.629 357.646 245.286C357.646 246.943 358.989 248.286 360.646 248.286Z" fill="white"/>
<path d="M338.025 285H335.388L339.406 273.364H342.576L346.587 285H343.951L341.036 276.023H340.945L338.025 285ZM337.86 280.426H344.087V282.347H337.86V280.426ZM353.539 281.284V276.273H355.96V285H353.636V283.415H353.545C353.348 283.926 353.02 284.337 352.562 284.648C352.107 284.958 351.552 285.114 350.897 285.114C350.314 285.114 349.8 284.981 349.357 284.716C348.914 284.451 348.567 284.074 348.317 283.585C348.071 283.097 347.946 282.511 347.942 281.83V276.273H350.363V281.398C350.367 281.913 350.505 282.32 350.778 282.619C351.05 282.919 351.416 283.068 351.874 283.068C352.166 283.068 352.439 283.002 352.692 282.869C352.946 282.733 353.151 282.532 353.306 282.267C353.465 282.002 353.543 281.674 353.539 281.284ZM362.538 276.273V278.091H357.282V276.273H362.538ZM358.475 274.182H360.896V282.318C360.896 282.542 360.93 282.716 360.998 282.841C361.066 282.962 361.161 283.047 361.282 283.097C361.407 283.146 361.551 283.17 361.714 283.17C361.827 283.17 361.941 283.161 362.055 283.142C362.168 283.119 362.255 283.102 362.316 283.091L362.697 284.892C362.576 284.93 362.405 284.973 362.185 285.023C361.966 285.076 361.699 285.108 361.384 285.119C360.801 285.142 360.29 285.064 359.85 284.886C359.415 284.708 359.076 284.432 358.833 284.057C358.591 283.682 358.471 283.208 358.475 282.636V274.182ZM367.964 285.17C367.081 285.17 366.318 284.983 365.674 284.608C365.034 284.229 364.54 283.703 364.191 283.028C363.843 282.35 363.668 281.564 363.668 280.67C363.668 279.769 363.843 278.981 364.191 278.307C364.54 277.629 365.034 277.102 365.674 276.727C366.318 276.348 367.081 276.159 367.964 276.159C368.846 276.159 369.608 276.348 370.248 276.727C370.892 277.102 371.388 277.629 371.737 278.307C372.085 278.981 372.259 279.769 372.259 280.67C372.259 281.564 372.085 282.35 371.737 283.028C371.388 283.703 370.892 284.229 370.248 284.608C369.608 284.983 368.846 285.17 367.964 285.17ZM367.975 283.295C368.377 283.295 368.712 283.182 368.981 282.955C369.25 282.723 369.452 282.409 369.589 282.011C369.729 281.614 369.799 281.161 369.799 280.653C369.799 280.146 369.729 279.693 369.589 279.295C369.452 278.898 369.25 278.583 368.981 278.352C368.712 278.121 368.377 278.006 367.975 278.006C367.57 278.006 367.229 278.121 366.952 278.352C366.68 278.583 366.473 278.898 366.333 279.295C366.197 279.693 366.129 280.146 366.129 280.653C366.129 281.161 366.197 281.614 366.333 282.011C366.473 282.409 366.68 282.723 366.952 282.955C367.229 283.182 367.57 283.295 367.975 283.295ZM379.271 279.261V281.182H373.964V279.261H379.271ZM384.549 285.142C383.886 285.142 383.286 284.972 382.748 284.631C382.214 284.286 381.79 283.78 381.475 283.114C381.165 282.443 381.009 281.621 381.009 280.648C381.009 279.648 381.17 278.816 381.492 278.153C381.814 277.487 382.242 276.989 382.776 276.659C383.314 276.326 383.903 276.159 384.543 276.159C385.032 276.159 385.439 276.242 385.765 276.409C386.094 276.572 386.36 276.777 386.56 277.023C386.765 277.265 386.92 277.504 387.026 277.739H387.1V273.364H389.515V285H387.129V283.602H387.026C386.913 283.845 386.752 284.085 386.543 284.324C386.339 284.559 386.072 284.754 385.742 284.909C385.416 285.064 385.019 285.142 384.549 285.142ZM385.316 283.216C385.706 283.216 386.036 283.11 386.305 282.898C386.577 282.682 386.786 282.381 386.93 281.994C387.077 281.608 387.151 281.155 387.151 280.636C387.151 280.117 387.079 279.667 386.935 279.284C386.791 278.902 386.583 278.606 386.31 278.398C386.038 278.189 385.706 278.085 385.316 278.085C384.918 278.085 384.583 278.193 384.31 278.409C384.038 278.625 383.831 278.924 383.691 279.307C383.551 279.689 383.481 280.133 383.481 280.636C383.481 281.144 383.551 281.593 383.691 281.983C383.835 282.369 384.041 282.672 384.31 282.892C384.583 283.108 384.918 283.216 385.316 283.216ZM391.505 285V276.273H393.925V285H391.505ZM392.721 275.148C392.361 275.148 392.052 275.028 391.795 274.79C391.541 274.547 391.414 274.258 391.414 273.92C391.414 273.587 391.541 273.301 391.795 273.062C392.052 272.82 392.361 272.699 392.721 272.699C393.081 272.699 393.388 272.82 393.641 273.062C393.899 273.301 394.028 273.587 394.028 273.92C394.028 274.258 393.899 274.547 393.641 274.79C393.388 275.028 393.081 275.148 392.721 275.148ZM403.126 278.761L400.91 278.898C400.872 278.708 400.79 278.538 400.665 278.386C400.54 278.231 400.376 278.108 400.171 278.017C399.97 277.922 399.73 277.875 399.45 277.875C399.075 277.875 398.758 277.955 398.501 278.114C398.243 278.269 398.114 278.477 398.114 278.739C398.114 278.947 398.198 279.123 398.364 279.267C398.531 279.411 398.817 279.527 399.222 279.614L400.802 279.932C401.65 280.106 402.283 280.386 402.7 280.773C403.116 281.159 403.325 281.667 403.325 282.295C403.325 282.867 403.156 283.369 402.819 283.801C402.486 284.233 402.027 284.57 401.444 284.812C400.864 285.051 400.196 285.17 399.438 285.17C398.283 285.17 397.362 284.93 396.677 284.449C395.995 283.964 395.595 283.305 395.478 282.472L397.859 282.347C397.931 282.699 398.105 282.968 398.381 283.153C398.658 283.335 399.012 283.426 399.444 283.426C399.868 283.426 400.209 283.345 400.467 283.182C400.728 283.015 400.861 282.801 400.864 282.54C400.861 282.32 400.768 282.14 400.586 282C400.404 281.856 400.124 281.746 399.745 281.67L398.234 281.369C397.381 281.199 396.747 280.903 396.33 280.483C395.917 280.062 395.711 279.527 395.711 278.875C395.711 278.314 395.862 277.831 396.165 277.426C396.472 277.021 396.902 276.708 397.455 276.489C398.012 276.269 398.664 276.159 399.41 276.159C400.512 276.159 401.379 276.392 402.012 276.858C402.648 277.324 403.02 277.958 403.126 278.761ZM409.491 276.273V278.091H404.235V276.273H409.491ZM405.428 274.182H407.849V282.318C407.849 282.542 407.883 282.716 407.951 282.841C408.019 282.962 408.114 283.047 408.235 283.097C408.36 283.146 408.504 283.17 408.667 283.17C408.781 283.17 408.894 283.161 409.008 283.142C409.121 283.119 409.209 283.102 409.269 283.091L409.65 284.892C409.529 284.93 409.358 284.973 409.138 285.023C408.919 285.076 408.652 285.108 408.337 285.119C407.754 285.142 407.243 285.064 406.803 284.886C406.368 284.708 406.029 284.432 405.786 284.057C405.544 283.682 405.424 283.208 405.428 282.636V274.182ZM411.067 285V276.273H413.414V277.795H413.505C413.664 277.254 413.931 276.845 414.306 276.568C414.681 276.288 415.113 276.148 415.602 276.148C415.723 276.148 415.853 276.155 415.994 276.17C416.134 276.186 416.257 276.206 416.363 276.233V278.381C416.249 278.347 416.092 278.316 415.891 278.29C415.691 278.263 415.507 278.25 415.34 278.25C414.984 278.25 414.666 278.328 414.386 278.483C414.109 278.634 413.889 278.847 413.727 279.119C413.567 279.392 413.488 279.706 413.488 280.062V285H411.067ZM417.614 285V276.273H420.035V285H417.614ZM418.83 275.148C418.47 275.148 418.162 275.028 417.904 274.79C417.65 274.547 417.523 274.258 417.523 273.92C417.523 273.587 417.65 273.301 417.904 273.062C418.162 272.82 418.47 272.699 418.83 272.699C419.19 272.699 419.497 272.82 419.751 273.062C420.008 273.301 420.137 273.587 420.137 273.92C420.137 274.258 420.008 274.547 419.751 274.79C419.497 275.028 419.19 275.148 418.83 275.148ZM422.019 285V273.364H424.44V277.739H424.513C424.62 277.504 424.773 277.265 424.974 277.023C425.178 276.777 425.443 276.572 425.769 276.409C426.099 276.242 426.508 276.159 426.996 276.159C427.633 276.159 428.22 276.326 428.758 276.659C429.296 276.989 429.726 277.487 430.048 278.153C430.37 278.816 430.531 279.648 430.531 280.648C430.531 281.621 430.373 282.443 430.059 283.114C429.748 283.78 429.324 284.286 428.786 284.631C428.252 284.972 427.654 285.142 426.991 285.142C426.521 285.142 426.121 285.064 425.792 284.909C425.466 284.754 425.199 284.559 424.991 284.324C424.782 284.085 424.623 283.845 424.513 283.602H424.406V285H422.019ZM424.388 280.636C424.388 281.155 424.46 281.608 424.604 281.994C424.748 282.381 424.957 282.682 425.229 282.898C425.502 283.11 425.834 283.216 426.224 283.216C426.618 283.216 426.951 283.108 427.224 282.892C427.496 282.672 427.703 282.369 427.843 281.983C427.987 281.593 428.059 281.144 428.059 280.636C428.059 280.133 427.989 279.689 427.849 279.307C427.709 278.924 427.502 278.625 427.229 278.409C426.957 278.193 426.621 278.085 426.224 278.085C425.83 278.085 425.496 278.189 425.224 278.398C424.955 278.606 424.748 278.902 424.604 279.284C424.46 279.667 424.388 280.117 424.388 280.636ZM437.742 281.284V276.273H440.163V285H437.839V283.415H437.748C437.551 283.926 437.223 284.337 436.765 284.648C436.31 284.958 435.755 285.114 435.1 285.114C434.517 285.114 434.004 284.981 433.56 284.716C433.117 284.451 432.771 284.074 432.521 283.585C432.274 283.097 432.149 282.511 432.146 281.83V276.273H434.566V281.398C434.57 281.913 434.708 282.32 434.981 282.619C435.254 282.919 435.619 283.068 436.077 283.068C436.369 283.068 436.642 283.002 436.896 282.869C437.149 282.733 437.354 282.532 437.509 282.267C437.668 282.002 437.746 281.674 437.742 281.284ZM446.741 276.273V278.091H441.485V276.273H446.741ZM442.678 274.182H445.099V282.318C445.099 282.542 445.133 282.716 445.201 282.841C445.269 282.962 445.364 283.047 445.485 283.097C445.61 283.146 445.754 283.17 445.917 283.17C446.031 283.17 446.144 283.161 446.258 283.142C446.371 283.119 446.459 283.102 446.519 283.091L446.9 284.892C446.779 284.93 446.608 284.973 446.388 285.023C446.169 285.076 445.902 285.108 445.587 285.119C445.004 285.142 444.493 285.064 444.053 284.886C443.618 284.708 443.279 284.432 443.036 284.057C442.794 283.682 442.674 283.208 442.678 282.636V274.182ZM452.201 285.17C451.303 285.17 450.531 284.989 449.883 284.625C449.239 284.258 448.743 283.739 448.394 283.068C448.046 282.394 447.871 281.597 447.871 280.676C447.871 279.778 448.046 278.991 448.394 278.312C448.743 277.634 449.233 277.106 449.866 276.727C450.502 276.348 451.248 276.159 452.104 276.159C452.68 276.159 453.216 276.252 453.712 276.438C454.212 276.619 454.648 276.894 455.019 277.261C455.394 277.629 455.686 278.091 455.894 278.648C456.103 279.201 456.207 279.848 456.207 280.591V281.256H448.837V279.756H453.928C453.928 279.407 453.853 279.098 453.701 278.83C453.549 278.561 453.339 278.35 453.07 278.199C452.805 278.044 452.496 277.966 452.144 277.966C451.777 277.966 451.451 278.051 451.167 278.222C450.887 278.388 450.667 278.614 450.508 278.898C450.349 279.178 450.267 279.491 450.263 279.835V281.261C450.263 281.693 450.343 282.066 450.502 282.381C450.665 282.695 450.894 282.938 451.19 283.108C451.485 283.278 451.835 283.364 452.241 283.364C452.51 283.364 452.756 283.326 452.979 283.25C453.203 283.174 453.394 283.061 453.553 282.909C453.712 282.758 453.834 282.572 453.917 282.352L456.156 282.5C456.042 283.038 455.809 283.508 455.457 283.909C455.108 284.307 454.657 284.617 454.104 284.841C453.555 285.061 452.921 285.17 452.201 285.17ZM461.002 285.142C460.339 285.142 459.739 284.972 459.201 284.631C458.667 284.286 458.243 283.78 457.928 283.114C457.618 282.443 457.462 281.621 457.462 280.648C457.462 279.648 457.623 278.816 457.945 278.153C458.267 277.487 458.695 276.989 459.229 276.659C459.767 276.326 460.356 276.159 460.996 276.159C461.485 276.159 461.892 276.242 462.218 276.409C462.548 276.572 462.813 276.777 463.013 277.023C463.218 277.265 463.373 277.504 463.479 277.739H463.553V273.364H465.968V285H463.582V283.602H463.479C463.366 283.845 463.205 284.085 462.996 284.324C462.792 284.559 462.525 284.754 462.195 284.909C461.87 285.064 461.472 285.142 461.002 285.142ZM461.769 283.216C462.159 283.216 462.489 283.11 462.758 282.898C463.031 282.682 463.239 282.381 463.383 281.994C463.531 281.608 463.604 281.155 463.604 280.636C463.604 280.117 463.532 279.667 463.388 279.284C463.245 278.902 463.036 278.606 462.763 278.398C462.491 278.189 462.159 278.085 461.769 278.085C461.371 278.085 461.036 278.193 460.763 278.409C460.491 278.625 460.284 278.924 460.144 279.307C460.004 279.689 459.934 280.133 459.934 280.636C459.934 281.144 460.004 281.593 460.144 281.983C460.288 282.369 460.495 282.672 460.763 282.892C461.036 283.108 461.371 283.216 461.769 283.216Z" fill="#2C2C2C"/>
<path d="M361.141 306V297.273H364.09C364.771 297.273 365.331 297.389 365.769 297.622C366.206 297.852 366.53 298.169 366.74 298.572C366.95 298.976 367.056 299.435 367.056 299.949C367.056 300.463 366.95 300.919 366.74 301.317C366.53 301.714 366.208 302.027 365.773 302.254C365.338 302.479 364.783 302.591 364.107 302.591H361.72V301.636H364.073C364.539 301.636 364.914 301.568 365.198 301.432C365.485 301.295 365.692 301.102 365.82 300.852C365.95 300.599 366.016 300.298 366.016 299.949C366.016 299.599 365.95 299.294 365.82 299.033C365.689 298.771 365.48 298.57 365.193 298.428C364.906 298.283 364.527 298.21 364.056 298.21H362.198V306H361.141ZM365.249 302.08L367.396 306H366.169L364.056 302.08H365.249ZM371.354 306.136C370.724 306.136 370.18 305.997 369.722 305.719C369.268 305.438 368.917 305.045 368.67 304.543C368.425 304.037 368.303 303.449 368.303 302.778C368.303 302.108 368.425 301.517 368.67 301.006C368.917 300.491 369.26 300.091 369.701 299.804C370.144 299.514 370.661 299.369 371.252 299.369C371.593 299.369 371.93 299.426 372.262 299.54C372.594 299.653 372.897 299.838 373.17 300.094C373.442 300.347 373.66 300.682 373.822 301.099C373.983 301.517 374.064 302.031 374.064 302.642V303.068H369.019V302.199H373.042C373.042 301.83 372.968 301.5 372.82 301.21C372.675 300.92 372.468 300.692 372.198 300.524C371.931 300.357 371.616 300.273 371.252 300.273C370.851 300.273 370.505 300.372 370.212 300.571C369.922 300.767 369.699 301.023 369.543 301.338C369.387 301.653 369.309 301.991 369.309 302.352V302.932C369.309 303.426 369.394 303.845 369.564 304.189C369.738 304.53 369.978 304.79 370.285 304.969C370.591 305.145 370.948 305.233 371.354 305.233C371.618 305.233 371.857 305.196 372.07 305.122C372.286 305.045 372.472 304.932 372.628 304.781C372.785 304.628 372.905 304.437 372.991 304.21L373.962 304.483C373.86 304.812 373.688 305.102 373.447 305.352C373.205 305.599 372.907 305.793 372.552 305.932C372.197 306.068 371.797 306.136 371.354 306.136ZM378.253 306.136C377.64 306.136 377.111 305.991 376.668 305.702C376.225 305.412 375.884 305.013 375.645 304.504C375.407 303.996 375.287 303.415 375.287 302.761C375.287 302.097 375.41 301.51 375.654 301.001C375.901 300.49 376.245 300.091 376.685 299.804C377.128 299.514 377.645 299.369 378.236 299.369C378.697 299.369 379.111 299.455 379.481 299.625C379.85 299.795 380.153 300.034 380.388 300.341C380.624 300.648 380.77 301.006 380.827 301.415H379.822C379.745 301.116 379.574 300.852 379.31 300.622C379.049 300.389 378.697 300.273 378.253 300.273C377.861 300.273 377.518 300.375 377.222 300.58C376.93 300.781 376.701 301.067 376.536 301.436C376.374 301.803 376.293 302.233 376.293 302.727C376.293 303.233 376.373 303.673 376.532 304.048C376.694 304.423 376.921 304.714 377.214 304.922C377.509 305.129 377.856 305.233 378.253 305.233C378.515 305.233 378.752 305.188 378.965 305.097C379.178 305.006 379.358 304.875 379.506 304.705C379.654 304.534 379.759 304.33 379.822 304.091H380.827C380.77 304.477 380.63 304.825 380.405 305.135C380.184 305.442 379.89 305.686 379.523 305.868C379.16 306.047 378.736 306.136 378.253 306.136ZM385.042 306.136C384.411 306.136 383.867 305.997 383.41 305.719C382.955 305.438 382.604 305.045 382.357 304.543C382.113 304.037 381.991 303.449 381.991 302.778C381.991 302.108 382.113 301.517 382.357 301.006C382.604 300.491 382.948 300.091 383.388 299.804C383.831 299.514 384.349 299.369 384.939 299.369C385.28 299.369 385.617 299.426 385.949 299.54C386.282 299.653 386.584 299.838 386.857 300.094C387.13 300.347 387.347 300.682 387.509 301.099C387.671 301.517 387.752 302.031 387.752 302.642V303.068H382.706V302.199H386.729C386.729 301.83 386.655 301.5 386.508 301.21C386.363 300.92 386.155 300.692 385.885 300.524C385.618 300.357 385.303 300.273 384.939 300.273C384.539 300.273 384.192 300.372 383.9 300.571C383.61 300.767 383.387 301.023 383.231 301.338C383.074 301.653 382.996 301.991 382.996 302.352V302.932C382.996 303.426 383.081 303.845 383.252 304.189C383.425 304.53 383.665 304.79 383.972 304.969C384.279 305.145 384.635 305.233 385.042 305.233C385.306 305.233 385.545 305.196 385.758 305.122C385.974 305.045 386.16 304.932 386.316 304.781C386.472 304.628 386.593 304.437 386.678 304.21L387.65 304.483C387.547 304.812 387.376 305.102 387.134 305.352C386.893 305.599 386.594 305.793 386.239 305.932C385.884 306.068 385.485 306.136 385.042 306.136ZM389.282 306V299.455H390.287V306H389.282ZM389.793 298.364C389.597 298.364 389.428 298.297 389.286 298.163C389.147 298.03 389.077 297.869 389.077 297.682C389.077 297.494 389.147 297.334 389.286 297.2C389.428 297.067 389.597 297 389.793 297C389.989 297 390.157 297.067 390.296 297.2C390.438 297.334 390.509 297.494 390.509 297.682C390.509 297.869 390.438 298.03 390.296 298.163C390.157 298.297 389.989 298.364 389.793 298.364ZM397.482 299.455L395.061 306H394.039L391.618 299.455H392.709L394.516 304.67H394.584L396.391 299.455H397.482ZM401.319 306.136C400.688 306.136 400.144 305.997 399.687 305.719C399.232 305.438 398.882 305.045 398.634 304.543C398.39 304.037 398.268 303.449 398.268 302.778C398.268 302.108 398.39 301.517 398.634 301.006C398.882 300.491 399.225 300.091 399.666 299.804C400.109 299.514 400.626 299.369 401.217 299.369C401.558 299.369 401.894 299.426 402.227 299.54C402.559 299.653 402.862 299.838 403.134 300.094C403.407 300.347 403.624 300.682 403.786 301.099C403.948 301.517 404.029 302.031 404.029 302.642V303.068H398.984V302.199H403.007C403.007 301.83 402.933 301.5 402.785 301.21C402.64 300.92 402.433 300.692 402.163 300.524C401.896 300.357 401.58 300.273 401.217 300.273C400.816 300.273 400.47 300.372 400.177 300.571C399.887 300.767 399.664 301.023 399.508 301.338C399.352 301.653 399.274 301.991 399.274 302.352V302.932C399.274 303.426 399.359 303.845 399.529 304.189C399.703 304.53 399.943 304.79 400.249 304.969C400.556 305.145 400.913 305.233 401.319 305.233C401.583 305.233 401.822 305.196 402.035 305.122C402.251 305.045 402.437 304.932 402.593 304.781C402.749 304.628 402.87 304.437 402.955 304.21L403.927 304.483C403.825 304.812 403.653 305.102 403.411 305.352C403.17 305.599 402.872 305.793 402.517 305.932C402.161 306.068 401.762 306.136 401.319 306.136ZM414.798 297.273H415.855V303.051C415.855 303.648 415.714 304.18 415.433 304.649C415.154 305.115 414.761 305.483 414.252 305.753C413.744 306.02 413.147 306.153 412.463 306.153C411.778 306.153 411.181 306.02 410.673 305.753C410.164 305.483 409.769 305.115 409.488 304.649C409.21 304.18 409.07 303.648 409.07 303.051V297.273H410.127V302.966C410.127 303.392 410.221 303.771 410.409 304.104C410.596 304.433 410.863 304.693 411.21 304.884C411.559 305.071 411.977 305.165 412.463 305.165C412.948 305.165 413.366 305.071 413.715 304.884C414.065 304.693 414.332 304.433 414.517 304.104C414.704 303.771 414.798 303.392 414.798 302.966V297.273ZM422.738 299.455C422.687 299.023 422.479 298.688 422.116 298.449C421.752 298.21 421.306 298.091 420.778 298.091C420.391 298.091 420.053 298.153 419.763 298.278C419.476 298.403 419.252 298.575 419.09 298.794C418.931 299.013 418.851 299.261 418.851 299.54C418.851 299.773 418.907 299.973 419.018 300.141C419.131 300.305 419.276 300.443 419.452 300.554C419.628 300.662 419.813 300.751 420.006 300.822C420.199 300.891 420.377 300.946 420.539 300.989L421.425 301.227C421.653 301.287 421.905 301.369 422.184 301.474C422.465 301.58 422.733 301.723 422.989 301.905C423.248 302.084 423.461 302.314 423.628 302.595C423.796 302.876 423.88 303.222 423.88 303.631C423.88 304.102 423.756 304.528 423.509 304.909C423.265 305.29 422.907 305.592 422.435 305.817C421.966 306.041 421.397 306.153 420.726 306.153C420.101 306.153 419.56 306.053 419.103 305.851C418.648 305.649 418.29 305.368 418.029 305.007C417.77 304.646 417.624 304.227 417.59 303.75H418.681C418.709 304.08 418.82 304.352 419.013 304.568C419.209 304.781 419.456 304.94 419.755 305.045C420.056 305.148 420.38 305.199 420.726 305.199C421.13 305.199 421.492 305.134 421.813 305.003C422.134 304.869 422.388 304.685 422.576 304.449C422.763 304.21 422.857 303.932 422.857 303.614C422.857 303.324 422.776 303.088 422.614 302.906C422.452 302.724 422.239 302.577 421.975 302.463C421.711 302.349 421.425 302.25 421.118 302.165L420.045 301.858C419.363 301.662 418.823 301.382 418.425 301.018C418.028 300.655 417.829 300.179 417.829 299.591C417.829 299.102 417.961 298.676 418.225 298.312C418.492 297.946 418.85 297.662 419.299 297.46C419.751 297.256 420.255 297.153 420.812 297.153C421.374 297.153 421.874 297.254 422.312 297.456C422.749 297.655 423.096 297.928 423.351 298.274C423.61 298.621 423.746 299.014 423.76 299.455H422.738ZM428.311 306H425.617V297.273H428.43C429.276 297.273 430.001 297.447 430.603 297.797C431.205 298.143 431.667 298.642 431.988 299.293C432.309 299.94 432.47 300.716 432.47 301.619C432.47 302.528 432.308 303.311 431.984 303.967C431.66 304.621 431.188 305.124 430.569 305.476C429.95 305.825 429.197 306 428.311 306ZM426.674 305.062H428.242C428.964 305.062 429.562 304.923 430.036 304.645C430.511 304.366 430.865 303.97 431.097 303.456C431.33 302.942 431.447 302.33 431.447 301.619C431.447 300.915 431.332 300.308 431.102 299.8C430.872 299.288 430.528 298.896 430.07 298.624C429.613 298.348 429.044 298.21 428.362 298.21H426.674V305.062ZM441.265 300H440.208C440.146 299.696 440.036 299.429 439.88 299.199C439.727 298.969 439.539 298.776 439.318 298.619C439.099 298.46 438.856 298.341 438.589 298.261C438.322 298.182 438.044 298.142 437.754 298.142C437.225 298.142 436.747 298.276 436.318 298.543C435.892 298.81 435.552 299.203 435.299 299.723C435.049 300.243 434.924 300.881 434.924 301.636C434.924 302.392 435.049 303.03 435.299 303.55C435.552 304.07 435.892 304.463 436.318 304.73C436.747 304.997 437.225 305.131 437.754 305.131C438.044 305.131 438.322 305.091 438.589 305.011C438.856 304.932 439.099 304.814 439.318 304.658C439.539 304.499 439.727 304.304 439.88 304.074C440.036 303.841 440.146 303.574 440.208 303.273H441.265C441.186 303.719 441.041 304.118 440.83 304.47C440.62 304.822 440.359 305.122 440.046 305.369C439.734 305.614 439.383 305.8 438.994 305.928C438.607 306.055 438.194 306.119 437.754 306.119C437.009 306.119 436.347 305.938 435.768 305.574C435.188 305.21 434.732 304.693 434.4 304.023C434.068 303.352 433.901 302.557 433.901 301.636C433.901 300.716 434.068 299.92 434.4 299.25C434.732 298.58 435.188 298.062 435.768 297.699C436.347 297.335 437.009 297.153 437.754 297.153C438.194 297.153 438.607 297.217 438.994 297.345C439.383 297.473 439.734 297.661 440.046 297.908C440.359 298.152 440.62 298.45 440.83 298.803C441.041 299.152 441.186 299.551 441.265 300Z" fill="#2C2C2C"/>
<path d="M339.323 559.366V562.829C339.323 566.651 336.22 569.737 332.414 569.737H292.437C288.614 569.737 285.529 566.651 285.529 562.829V559.383C285.529 555.56 288.631 552.457 292.454 552.457H332.414C336.22 552.457 339.323 555.543 339.323 559.366Z" fill="#F9A41A"/>
<path d="M336.477 542.086V545.549C336.477 549.371 333.374 552.457 329.569 552.457H289.591C285.769 552.457 282.683 549.371 282.683 545.549V542.103C282.683 538.28 285.786 535.177 289.609 535.177H329.569C333.374 535.177 336.477 538.263 336.477 542.086Z" fill="#F9A41A"/>
<path d="M267.066 565.04C287.715 565.04 304.454 548.301 304.454 527.651C304.454 507.002 287.715 490.263 267.066 490.263C246.417 490.263 229.677 507.002 229.677 527.651C229.677 548.301 246.417 565.04 267.066 565.04Z" fill="#F9A41A"/>
<path d="M275.037 569.737C295.686 569.737 312.426 552.998 312.426 532.349C312.426 511.699 295.686 494.96 275.037 494.96C254.388 494.96 237.649 511.699 237.649 532.349C237.649 552.998 254.388 569.737 275.037 569.737Z" fill="#FBE063"/>
<path d="M275.037 556.966C288.633 556.966 299.654 545.944 299.654 532.349C299.654 518.753 288.633 507.731 275.037 507.731C261.442 507.731 250.42 518.753 250.42 532.349C250.42 545.944 261.442 556.966 275.037 556.966Z" fill="#F9A41A"/>
<path d="M268.574 520.554C269.912 519.097 271.78 518.343 274.197 518.326V515.926H275.912V518.274C278.294 518.446 280.129 519.149 281.414 520.383C282.7 521.617 283.369 523.263 283.42 525.303H280.266C280.18 524.394 279.94 523.606 279.529 522.954C278.774 521.737 277.574 521.103 275.912 521.051V529.794C278.689 530.566 280.592 531.303 281.586 531.989C283.197 533.12 284.02 534.783 284.02 536.994C284.02 540.183 282.974 542.446 280.9 543.8C279.752 544.537 278.089 545.034 275.912 545.274V548.771H274.197V545.274C270.7 545.051 268.334 543.817 267.083 541.571C266.397 540.354 266.054 538.726 266.054 536.651H269.243C269.346 538.297 269.603 539.497 270.014 540.251C270.752 541.606 272.14 542.36 274.146 542.531V532.743C271.557 532.246 269.637 531.423 268.403 530.274C267.169 529.126 266.552 527.531 266.552 525.491C266.569 523.657 267.237 522.011 268.574 520.554ZM270.992 528.063C271.78 528.731 272.843 529.194 274.163 529.469V521.017C272.586 521.069 271.472 521.549 270.803 522.457C270.134 523.349 269.809 524.291 269.809 525.286C269.809 526.451 270.203 527.377 270.992 528.063ZM280.163 540.389C280.574 539.669 280.78 538.829 280.78 537.886C280.78 536.394 280.232 535.246 279.117 534.474C278.483 534.011 277.42 533.583 275.912 533.171V542.634C277.969 542.531 279.374 541.777 280.163 540.389Z" fill="#FBE063"/>
<path d="M242.605 610V598.364H245.065V603.165H250.06V598.364H252.514V610H250.06V605.193H245.065V610H242.605ZM258.44 610.17C257.558 610.17 256.795 609.983 256.151 609.608C255.51 609.229 255.016 608.703 254.668 608.028C254.319 607.35 254.145 606.564 254.145 605.67C254.145 604.769 254.319 603.981 254.668 603.307C255.016 602.629 255.51 602.102 256.151 601.727C256.795 601.348 257.558 601.159 258.44 601.159C259.323 601.159 260.084 601.348 260.724 601.727C261.368 602.102 261.865 602.629 262.213 603.307C262.562 603.981 262.736 604.769 262.736 605.67C262.736 606.564 262.562 607.35 262.213 608.028C261.865 608.703 261.368 609.229 260.724 609.608C260.084 609.983 259.323 610.17 258.44 610.17ZM258.452 608.295C258.853 608.295 259.188 608.182 259.457 607.955C259.726 607.723 259.929 607.409 260.065 607.011C260.205 606.614 260.276 606.161 260.276 605.653C260.276 605.146 260.205 604.693 260.065 604.295C259.929 603.898 259.726 603.583 259.457 603.352C259.188 603.121 258.853 603.006 258.452 603.006C258.046 603.006 257.705 603.121 257.429 603.352C257.156 603.583 256.95 603.898 256.81 604.295C256.673 604.693 256.605 605.146 256.605 605.653C256.605 606.161 256.673 606.614 256.81 607.011C256.95 607.409 257.156 607.723 257.429 607.955C257.705 608.182 258.046 608.295 258.452 608.295ZM266.73 598.364V610H264.31V598.364H266.73ZM271.885 610.142C271.222 610.142 270.622 609.972 270.084 609.631C269.55 609.286 269.125 608.78 268.811 608.114C268.5 607.443 268.345 606.621 268.345 605.648C268.345 604.648 268.506 603.816 268.828 603.153C269.15 602.487 269.578 601.989 270.112 601.659C270.65 601.326 271.239 601.159 271.879 601.159C272.368 601.159 272.775 601.242 273.101 601.409C273.43 601.572 273.696 601.777 273.896 602.023C274.101 602.265 274.256 602.504 274.362 602.739H274.436V598.364H276.851V610H274.464V608.602H274.362C274.249 608.845 274.088 609.085 273.879 609.324C273.675 609.559 273.408 609.754 273.078 609.909C272.752 610.064 272.355 610.142 271.885 610.142ZM272.652 608.216C273.042 608.216 273.372 608.11 273.641 607.898C273.913 607.682 274.122 607.381 274.266 606.994C274.413 606.608 274.487 606.155 274.487 605.636C274.487 605.117 274.415 604.667 274.271 604.284C274.127 603.902 273.919 603.606 273.646 603.398C273.374 603.189 273.042 603.085 272.652 603.085C272.254 603.085 271.919 603.193 271.646 603.409C271.374 603.625 271.167 603.924 271.027 604.307C270.887 604.689 270.817 605.133 270.817 605.636C270.817 606.144 270.887 606.593 271.027 606.983C271.171 607.369 271.377 607.672 271.646 607.892C271.919 608.108 272.254 608.216 272.652 608.216ZM289.777 598.364H292.237V605.92C292.237 606.769 292.035 607.511 291.629 608.148C291.228 608.784 290.665 609.28 289.942 609.636C289.218 609.989 288.375 610.165 287.413 610.165C286.447 610.165 285.603 609.989 284.879 609.636C284.156 609.28 283.593 608.784 283.192 608.148C282.79 607.511 282.589 606.769 282.589 605.92V598.364H285.05V605.71C285.05 606.153 285.146 606.547 285.339 606.892C285.536 607.237 285.813 607.508 286.169 607.705C286.525 607.902 286.94 608 287.413 608C287.891 608 288.305 607.902 288.658 607.705C289.014 607.508 289.288 607.237 289.482 606.892C289.679 606.547 289.777 606.153 289.777 605.71V598.364ZM300.574 601.71C300.528 601.252 300.333 600.896 299.989 600.642C299.644 600.388 299.176 600.261 298.585 600.261C298.184 600.261 297.845 600.318 297.568 600.432C297.292 600.542 297.08 600.695 296.932 600.892C296.788 601.089 296.716 601.312 296.716 601.562C296.708 601.771 296.752 601.953 296.847 602.108C296.945 602.263 297.08 602.398 297.25 602.511C297.42 602.621 297.617 602.718 297.841 602.801C298.064 602.881 298.303 602.949 298.557 603.006L299.602 603.256C300.11 603.369 300.576 603.521 301 603.71C301.424 603.9 301.792 604.133 302.102 604.409C302.413 604.686 302.653 605.011 302.824 605.386C302.998 605.761 303.087 606.191 303.091 606.676C303.087 607.388 302.905 608.006 302.545 608.528C302.189 609.047 301.674 609.451 301 609.739C300.33 610.023 299.521 610.165 298.574 610.165C297.634 610.165 296.816 610.021 296.119 609.733C295.426 609.445 294.884 609.019 294.494 608.455C294.108 607.886 293.905 607.184 293.886 606.347H296.267C296.294 606.737 296.405 607.062 296.602 607.324C296.803 607.581 297.07 607.777 297.403 607.909C297.741 608.038 298.121 608.102 298.545 608.102C298.962 608.102 299.324 608.042 299.631 607.92C299.941 607.799 300.182 607.631 300.352 607.415C300.523 607.199 300.608 606.951 300.608 606.67C300.608 606.409 300.53 606.189 300.375 606.011C300.223 605.833 300 605.682 299.705 605.557C299.413 605.432 299.055 605.318 298.631 605.216L297.364 604.898C296.383 604.659 295.608 604.286 295.04 603.778C294.472 603.271 294.189 602.587 294.193 601.727C294.189 601.023 294.377 600.407 294.756 599.881C295.138 599.354 295.663 598.943 296.33 598.648C296.996 598.352 297.754 598.205 298.602 598.205C299.466 598.205 300.22 598.352 300.864 598.648C301.511 598.943 302.015 599.354 302.375 599.881C302.735 600.407 302.92 601.017 302.932 601.71H300.574ZM308.871 610H304.746V598.364H308.905C310.075 598.364 311.083 598.597 311.928 599.062C312.772 599.525 313.422 600.189 313.876 601.057C314.335 601.924 314.564 602.962 314.564 604.17C314.564 605.383 314.335 606.424 313.876 607.295C313.422 608.167 312.768 608.835 311.916 609.301C311.068 609.767 310.053 610 308.871 610ZM307.206 607.892H308.768C309.496 607.892 310.107 607.763 310.604 607.506C311.104 607.244 311.479 606.841 311.729 606.295C311.982 605.746 312.109 605.038 312.109 604.17C312.109 603.311 311.982 602.608 311.729 602.062C311.479 601.517 311.106 601.116 310.609 600.858C310.113 600.6 309.501 600.472 308.774 600.472H307.206V607.892ZM326.653 602.438H324.165C324.119 602.116 324.027 601.83 323.886 601.58C323.746 601.326 323.566 601.11 323.347 600.932C323.127 600.754 322.873 600.617 322.585 600.523C322.301 600.428 321.992 600.381 321.659 600.381C321.057 600.381 320.532 600.53 320.085 600.83C319.638 601.125 319.292 601.557 319.045 602.125C318.799 602.689 318.676 603.375 318.676 604.182C318.676 605.011 318.799 605.708 319.045 606.273C319.295 606.837 319.644 607.263 320.091 607.551C320.538 607.839 321.055 607.983 321.642 607.983C321.972 607.983 322.277 607.939 322.557 607.852C322.841 607.765 323.093 607.638 323.312 607.472C323.532 607.301 323.714 607.095 323.858 606.852C324.006 606.61 324.108 606.333 324.165 606.023L326.653 606.034C326.589 606.568 326.428 607.083 326.17 607.58C325.917 608.072 325.574 608.513 325.142 608.903C324.714 609.29 324.203 609.597 323.608 609.824C323.017 610.047 322.348 610.159 321.602 610.159C320.564 610.159 319.636 609.924 318.818 609.455C318.004 608.985 317.36 608.305 316.886 607.415C316.417 606.525 316.182 605.447 316.182 604.182C316.182 602.913 316.42 601.833 316.898 600.943C317.375 600.053 318.023 599.375 318.841 598.909C319.659 598.439 320.58 598.205 321.602 598.205C322.277 598.205 322.902 598.299 323.477 598.489C324.057 598.678 324.57 598.955 325.017 599.318C325.464 599.678 325.828 600.119 326.108 600.642C326.392 601.165 326.574 601.763 326.653 602.438Z" fill="#2C2C2C"/>
<g clip-path="url(#clip0_10_95)">
<path d="M479.686 558.372C492.491 558.372 502.872 547.991 502.872 535.186C502.872 522.381 492.491 512 479.686 512C466.881 512 456.5 522.381 456.5 535.186C456.5 547.991 466.881 558.372 479.686 558.372Z" fill="#F9A41A"/>
<path d="M484.028 562.714C496.833 562.714 507.214 552.334 507.214 539.528C507.214 526.723 496.833 516.342 484.028 516.342C471.223 516.342 460.842 526.723 460.842 539.528C460.842 552.334 471.223 562.714 484.028 562.714Z" fill="#FBE063"/>
<path d="M484.028 554.792C492.458 554.792 499.292 547.958 499.292 539.528C499.292 531.098 492.458 524.264 484.028 524.264C475.598 524.264 468.764 531.098 468.764 539.528C468.764 547.958 475.598 554.792 484.028 554.792Z" fill="#F9A41A"/>
<path d="M485.354 540.456H480.863C480.399 540.456 480.034 540.092 480.034 539.628V532.335C480.034 531.871 480.399 531.507 480.863 531.507H485.354C487.823 531.507 489.829 533.512 489.829 535.982C489.829 537.191 489.365 538.318 488.503 539.147C487.658 539.992 486.531 540.456 485.354 540.456ZM481.675 538.799H485.337C486.083 538.799 486.796 538.501 487.326 537.97C487.873 537.44 488.155 536.744 488.155 535.982C488.155 534.424 486.895 533.164 485.337 533.164H481.675V538.799Z" fill="#FBE063"/>
<path d="M485.354 547.765H480.863C480.399 547.765 480.034 547.401 480.034 546.937V539.644C480.034 539.18 480.399 538.816 480.863 538.816H485.354C487.823 538.816 489.829 540.821 489.829 543.29C489.829 544.5 489.365 545.627 488.503 546.456C487.658 547.285 486.531 547.765 485.354 547.765ZM481.675 546.108H485.337C486.083 546.108 486.796 545.81 487.326 545.279C487.873 544.749 488.155 544.053 488.155 543.29C488.155 541.733 486.895 540.473 485.337 540.473H481.675V546.108Z" fill="#FBE063"/>
<path d="M480.846 547.765H479.056C478.592 547.765 478.228 547.401 478.228 546.937C478.228 546.472 478.592 546.108 479.056 546.108H480.846C481.31 546.108 481.675 546.472 481.675 546.937C481.675 547.401 481.31 547.765 480.846 547.765Z" fill="#FBE063"/>
<path d="M480.846 533.164H479.056C478.592 533.164 478.228 532.799 478.228 532.335C478.228 531.871 478.592 531.507 479.056 531.507H480.846C481.31 531.507 481.675 531.871 481.675 532.335C481.675 532.799 481.31 533.164 480.846 533.164Z" fill="#FBE063"/>
<path d="M483.398 532.965C482.934 532.965 482.57 532.601 482.57 532.137V530.347C482.57 529.883 482.934 529.518 483.398 529.518C483.862 529.518 484.227 529.883 484.227 530.347V532.137C484.227 532.601 483.846 532.965 483.398 532.965Z" fill="#FBE063"/>
<path d="M483.796 549.555C483.332 549.555 482.968 549.19 482.968 548.726V546.937C482.968 546.472 483.332 546.108 483.796 546.108C484.26 546.108 484.625 546.472 484.625 546.937V548.726C484.625 549.174 484.26 549.555 483.796 549.555Z" fill="#FBE063"/>
<path d="M512.686 541.372C525.491 541.372 535.872 530.991 535.872 518.186C535.872 505.381 525.491 495 512.686 495C499.881 495 489.5 505.381 489.5 518.186C489.5 530.991 499.881 541.372 512.686 541.372Z" fill="#348EE8"/>
<path d="M517.028 545.714C529.833 545.714 540.214 535.334 540.214 522.528C540.214 509.723 529.833 499.342 517.028 499.342C504.223 499.342 493.842 509.723 493.842 522.528C493.842 535.334 504.223 545.714 517.028 545.714Z" fill="#6CBDFF"/>
<path d="M517.028 537.792C525.458 537.792 532.292 530.958 532.292 522.528C532.292 514.098 525.458 507.264 517.028 507.264C508.598 507.264 501.764 514.098 501.764 522.528C501.764 530.958 508.598 537.792 517.028 537.792Z" fill="#348EE8"/>
<path d="M545.686 560.372C558.491 560.372 568.872 549.991 568.872 537.186C568.872 524.381 558.491 514 545.686 514C532.881 514 522.5 524.381 522.5 537.186C522.5 549.991 532.881 560.372 545.686 560.372Z" fill="#26C666"/>
<path d="M550.028 564.714C562.833 564.714 573.214 554.334 573.214 541.528C573.214 528.723 562.833 518.342 550.028 518.342C537.223 518.342 526.842 528.723 526.842 541.528C526.842 554.334 537.223 564.714 550.028 564.714Z" fill="#54E28E"/>
<path d="M550.028 556.792C558.458 556.792 565.292 549.958 565.292 541.528C565.292 533.098 558.458 526.264 550.028 526.264C541.598 526.264 534.764 533.098 534.764 541.528C534.764 549.958 541.598 556.792 550.028 556.792Z" fill="#26C666"/>
<path d="M525.71 523.021L518.334 527.524C518.241 527.579 518.112 527.579 518.01 527.524L510.643 523.021C510.504 522.937 510.458 522.743 510.542 522.604L517.908 510.16C518.028 509.947 518.325 509.947 518.436 510.16L525.812 522.604C525.904 522.752 525.849 522.937 525.71 523.021Z" fill="#6CBDFF"/>
<path d="M524.718 525.524L518.028 535.114C517.908 535.281 517.648 535.281 517.528 535.114L510.819 525.524C510.634 525.246 510.949 524.903 511.236 525.08L517.602 528.999C517.704 529.055 517.834 529.055 517.926 528.999L524.301 525.08C524.579 524.903 524.903 525.246 524.718 525.524Z" fill="#6CBDFF"/>
<path d="M556.987 537.824C556.526 538.293 555.522 539.304 555.016 539.825C554.838 540.018 554.726 539.996 554.54 539.825C553.283 538.546 550.591 535.875 550.479 535.779L546.507 539.832C546.374 539.966 546.15 539.974 546.009 539.832L544.008 537.839C543.874 537.705 543.874 537.482 544.008 537.348L550.249 531.1C550.382 530.967 550.613 530.967 550.747 531.1L556.98 537.333C557.121 537.467 557.121 537.69 556.987 537.824Z" fill="white"/>
<path d="M557.002 546.251L550.732 552.506C550.598 552.64 550.382 552.64 550.256 552.506L543.934 546.266C543.8 546.132 543.8 545.909 543.934 545.783C544.61 545.128 545.786 544.005 545.92 543.841C546.105 543.626 546.239 543.618 546.448 543.826C547.69 545.098 550.39 547.768 550.568 547.932C550.761 547.687 553.402 544.979 554.525 543.834C554.733 543.626 554.852 543.64 555.053 543.841C555.7 544.503 556.362 545.143 557.002 545.768C557.136 545.902 557.128 546.117 557.002 546.251Z" fill="white"/>
<path d="M552.792 542.012L550.531 544.183C550.449 544.265 550.323 544.265 550.241 544.183C549.691 543.603 548.404 542.272 548.129 542.004C548.017 541.9 547.958 541.803 548.092 541.662C548.828 540.918 549.557 540.182 550.256 539.468C550.338 539.386 550.464 539.386 550.546 539.468L552.785 541.721C552.874 541.803 552.874 541.93 552.792 542.012Z" fill="white"/>
<path d="M561.435 542.034C560.959 542.48 559.471 543.893 559.263 544.116C559.107 544.288 558.995 544.273 558.839 544.109C558.147 543.41 557.448 542.718 556.756 542.026C556.6 541.878 556.578 541.774 556.742 541.603C557.456 540.903 558.155 540.204 558.861 539.498C558.965 539.386 559.062 539.304 559.203 539.446C559.821 540.07 561.033 541.312 561.442 541.744C561.524 541.833 561.517 541.96 561.435 542.034Z" fill="white"/>
<path d="M544.38 541.811C544.328 541.878 544.283 541.952 544.231 542.004C543.532 542.711 542.826 543.402 542.126 544.109C541.963 544.273 541.859 544.258 541.703 544.102C541.018 543.402 540.319 542.703 539.62 542.019C539.456 541.855 539.464 541.751 539.62 541.595C540.327 540.896 541.026 540.197 541.725 539.49C541.851 539.364 541.948 539.319 542.097 539.468C542.803 540.197 543.525 540.911 544.239 541.632C544.291 541.684 544.328 541.744 544.38 541.811Z" fill="white"/>
</g>
<path d="M471.254 601.71C471.208 601.252 471.013 600.896 470.668 600.642C470.324 600.388 469.856 600.261 469.265 600.261C468.863 600.261 468.524 600.318 468.248 600.432C467.971 600.542 467.759 600.695 467.612 600.892C467.468 601.089 467.396 601.312 467.396 601.562C467.388 601.771 467.432 601.953 467.526 602.108C467.625 602.263 467.759 602.398 467.93 602.511C468.1 602.621 468.297 602.718 468.521 602.801C468.744 602.881 468.983 602.949 469.237 603.006L470.282 603.256C470.79 603.369 471.255 603.521 471.68 603.71C472.104 603.9 472.471 604.133 472.782 604.409C473.093 604.686 473.333 605.011 473.504 605.386C473.678 605.761 473.767 606.191 473.771 606.676C473.767 607.388 473.585 608.006 473.225 608.528C472.869 609.047 472.354 609.451 471.68 609.739C471.009 610.023 470.201 610.165 469.254 610.165C468.314 610.165 467.496 610.021 466.799 609.733C466.106 609.445 465.564 609.019 465.174 608.455C464.788 607.886 464.585 607.184 464.566 606.347H466.947C466.973 606.737 467.085 607.062 467.282 607.324C467.483 607.581 467.75 607.777 468.083 607.909C468.42 608.038 468.801 608.102 469.225 608.102C469.642 608.102 470.004 608.042 470.31 607.92C470.621 607.799 470.862 607.631 471.032 607.415C471.202 607.199 471.288 606.951 471.288 606.67C471.288 606.409 471.21 606.189 471.055 606.011C470.903 605.833 470.68 605.682 470.384 605.557C470.093 605.432 469.735 605.318 469.31 605.216L468.043 604.898C467.062 604.659 466.288 604.286 465.719 603.778C465.151 603.271 464.869 602.587 464.873 601.727C464.869 601.023 465.057 600.407 465.435 599.881C465.818 599.354 466.343 598.943 467.009 598.648C467.676 598.352 468.433 598.205 469.282 598.205C470.146 598.205 470.899 598.352 471.543 598.648C472.191 598.943 472.695 599.354 473.055 599.881C473.415 600.407 473.6 601.017 473.612 601.71H471.254ZM480.022 601.273V603.091H474.766V601.273H480.022ZM475.96 599.182H478.38V607.318C478.38 607.542 478.414 607.716 478.482 607.841C478.55 607.962 478.645 608.047 478.766 608.097C478.891 608.146 479.035 608.17 479.198 608.17C479.312 608.17 479.425 608.161 479.539 608.142C479.653 608.119 479.74 608.102 479.8 608.091L480.181 609.892C480.06 609.93 479.889 609.973 479.67 610.023C479.45 610.076 479.183 610.108 478.869 610.119C478.285 610.142 477.774 610.064 477.335 609.886C476.899 609.708 476.56 609.432 476.317 609.057C476.075 608.682 475.956 608.208 475.96 607.636V599.182ZM484.087 610.165C483.531 610.165 483.034 610.068 482.599 609.875C482.163 609.678 481.818 609.388 481.565 609.006C481.315 608.619 481.19 608.138 481.19 607.562C481.19 607.078 481.279 606.67 481.457 606.341C481.635 606.011 481.877 605.746 482.184 605.545C482.491 605.345 482.839 605.193 483.229 605.091C483.623 604.989 484.036 604.917 484.468 604.875C484.976 604.822 485.385 604.773 485.695 604.727C486.006 604.678 486.231 604.606 486.371 604.511C486.512 604.417 486.582 604.277 486.582 604.091V604.057C486.582 603.697 486.468 603.419 486.241 603.222C486.017 603.025 485.699 602.926 485.286 602.926C484.851 602.926 484.504 603.023 484.246 603.216C483.989 603.405 483.818 603.644 483.735 603.932L481.496 603.75C481.61 603.22 481.834 602.761 482.167 602.375C482.5 601.985 482.93 601.686 483.457 601.477C483.987 601.265 484.601 601.159 485.298 601.159C485.782 601.159 486.246 601.216 486.69 601.33C487.137 601.443 487.532 601.619 487.877 601.858C488.226 602.097 488.5 602.403 488.701 602.778C488.902 603.15 489.002 603.595 489.002 604.114V610H486.707V608.79H486.638C486.498 609.062 486.311 609.303 486.076 609.511C485.841 609.716 485.559 609.877 485.229 609.994C484.9 610.108 484.519 610.165 484.087 610.165ZM484.781 608.494C485.137 608.494 485.451 608.424 485.724 608.284C485.996 608.14 486.21 607.947 486.366 607.705C486.521 607.462 486.599 607.187 486.599 606.881V605.955C486.523 606.004 486.419 606.049 486.286 606.091C486.157 606.129 486.012 606.165 485.849 606.199C485.686 606.229 485.523 606.258 485.36 606.284C485.197 606.307 485.049 606.328 484.917 606.347C484.633 606.388 484.385 606.455 484.173 606.545C483.96 606.636 483.796 606.759 483.678 606.915C483.561 607.066 483.502 607.256 483.502 607.483C483.502 607.812 483.621 608.064 483.86 608.239C484.103 608.409 484.409 608.494 484.781 608.494ZM493.073 607.489L493.079 604.585H493.431L496.227 601.273H499.005L495.249 605.659H494.675L493.073 607.489ZM490.88 610V598.364H493.3V610H490.88ZM496.335 610L493.766 606.199L495.38 604.489L499.17 610H496.335ZM503.81 610.17C502.913 610.17 502.14 609.989 501.492 609.625C500.848 609.258 500.352 608.739 500.004 608.068C499.655 607.394 499.481 606.597 499.481 605.676C499.481 604.778 499.655 603.991 500.004 603.312C500.352 602.634 500.843 602.106 501.475 601.727C502.112 601.348 502.858 601.159 503.714 601.159C504.29 601.159 504.826 601.252 505.322 601.438C505.822 601.619 506.257 601.894 506.629 602.261C507.004 602.629 507.295 603.091 507.504 603.648C507.712 604.201 507.816 604.848 507.816 605.591V606.256H500.447V604.756H505.538C505.538 604.407 505.462 604.098 505.31 603.83C505.159 603.561 504.949 603.35 504.68 603.199C504.415 603.044 504.106 602.966 503.754 602.966C503.386 602.966 503.06 603.051 502.776 603.222C502.496 603.388 502.276 603.614 502.117 603.898C501.958 604.178 501.877 604.491 501.873 604.835V606.261C501.873 606.693 501.952 607.066 502.112 607.381C502.274 607.695 502.504 607.938 502.799 608.108C503.094 608.278 503.445 608.364 503.85 608.364C504.119 608.364 504.365 608.326 504.589 608.25C504.812 608.174 505.004 608.061 505.163 607.909C505.322 607.758 505.443 607.572 505.526 607.352L507.765 607.5C507.651 608.038 507.418 608.508 507.066 608.909C506.718 609.307 506.267 609.617 505.714 609.841C505.165 610.061 504.53 610.17 503.81 610.17ZM513.099 610V601.273H515.519V610H513.099ZM514.315 600.148C513.955 600.148 513.646 600.028 513.388 599.79C513.135 599.547 513.008 599.258 513.008 598.92C513.008 598.587 513.135 598.301 513.388 598.062C513.646 597.82 513.955 597.699 514.315 597.699C514.674 597.699 514.981 597.82 515.235 598.062C515.493 598.301 515.621 598.587 515.621 598.92C515.621 599.258 515.493 599.547 515.235 599.79C514.981 600.028 514.674 600.148 514.315 600.148ZM519.879 604.955V610H517.458V601.273H519.765V602.812H519.867C520.06 602.305 520.384 601.903 520.839 601.608C521.293 601.309 521.844 601.159 522.492 601.159C523.098 601.159 523.627 601.292 524.077 601.557C524.528 601.822 524.879 602.201 525.129 602.693C525.379 603.182 525.504 603.765 525.504 604.443V610H523.083V604.875C523.087 604.341 522.951 603.924 522.674 603.625C522.397 603.322 522.017 603.17 521.532 603.17C521.206 603.17 520.918 603.241 520.668 603.381C520.422 603.521 520.229 603.725 520.089 603.994C519.952 604.259 519.882 604.58 519.879 604.955ZM535.285 610H531.16V598.364H535.319C536.489 598.364 537.497 598.597 538.342 599.062C539.186 599.525 539.836 600.189 540.29 601.057C540.749 601.924 540.978 602.962 540.978 604.17C540.978 605.383 540.749 606.424 540.29 607.295C539.836 608.167 539.183 608.835 538.33 609.301C537.482 609.767 536.467 610 535.285 610ZM533.62 607.892H535.183C535.91 607.892 536.522 607.763 537.018 607.506C537.518 607.244 537.893 606.841 538.143 606.295C538.397 605.746 538.523 605.038 538.523 604.17C538.523 603.311 538.397 602.608 538.143 602.062C537.893 601.517 537.52 601.116 537.023 600.858C536.527 600.6 535.915 600.472 535.188 600.472H533.62V607.892ZM546.732 610.17C545.835 610.17 545.062 609.989 544.414 609.625C543.77 609.258 543.274 608.739 542.925 608.068C542.577 607.394 542.403 606.597 542.403 605.676C542.403 604.778 542.577 603.991 542.925 603.312C543.274 602.634 543.764 602.106 544.397 601.727C545.033 601.348 545.78 601.159 546.636 601.159C547.211 601.159 547.747 601.252 548.244 601.438C548.744 601.619 549.179 601.894 549.55 602.261C549.925 602.629 550.217 603.091 550.425 603.648C550.634 604.201 550.738 604.848 550.738 605.591V606.256H543.369V604.756H548.46C548.46 604.407 548.384 604.098 548.232 603.83C548.081 603.561 547.871 603.35 547.602 603.199C547.336 603.044 547.028 602.966 546.675 602.966C546.308 602.966 545.982 603.051 545.698 603.222C545.418 603.388 545.198 603.614 545.039 603.898C544.88 604.178 544.799 604.491 544.795 604.835V606.261C544.795 606.693 544.874 607.066 545.033 607.381C545.196 607.695 545.425 607.938 545.721 608.108C546.016 608.278 546.367 608.364 546.772 608.364C547.041 608.364 547.287 608.326 547.511 608.25C547.734 608.174 547.925 608.061 548.085 607.909C548.244 607.758 548.365 607.572 548.448 607.352L550.687 607.5C550.573 608.038 550.34 608.508 549.988 608.909C549.639 609.307 549.189 609.617 548.636 609.841C548.086 610.061 547.452 610.17 546.732 610.17ZM552.363 610V598.364H560.067V600.392H554.823V603.165H559.556V605.193H554.823V610H552.363ZM561.677 610V601.273H564.097V610H561.677ZM562.893 600.148C562.533 600.148 562.224 600.028 561.967 599.79C561.713 599.547 561.586 599.258 561.586 598.92C561.586 598.587 561.713 598.301 561.967 598.062C562.224 597.82 562.533 597.699 562.893 597.699C563.253 597.699 563.559 597.82 563.813 598.062C564.071 598.301 564.2 598.587 564.2 598.92C564.2 599.258 564.071 599.547 563.813 599.79C563.559 600.028 563.253 600.148 562.893 600.148Z" fill="#2C2C2C"/>
<defs>
<clipPath id="clip0_10_95">
<rect width="120" height="120" fill="white" transform="translate(454.5 470)"/>
</clipPath>
</defs>
</svg>
