<svg width="800" height="800" viewBox="0 0 800 800" fill="none" xmlns="http://www.w3.org/2000/svg">
<path d="M398 257.667C395.054 257.667 392.667 260.054 392.667 263C392.667 265.946 395.054 268.333 398 268.333C400.946 268.333 403.333 265.946 403.333 263C403.333 260.054 400.946 257.667 398 257.667ZM398 303L403.774 293H392.226L398 303ZM398 263H397V265H398H399V263H398ZM398 269H397V273H398H399V269H398ZM398 277H397V281H398H399V277H398ZM398 285H397V289H398H399V285H398ZM398 293H397V297H398H399V293H398Z" fill="#6B7280"/>
<path d="M308 552L319.128 548.919L310.896 540.822L308 552ZM368 491L367.287 490.299L365.923 491.685L366.636 492.386L367.349 493.088L368.713 491.701L368 491ZM363.909 495.159L363.196 494.458L360.469 497.231L361.182 497.932L361.895 498.633L364.622 495.86L363.909 495.159ZM358.455 500.705L357.742 500.003L355.014 502.776L355.727 503.477L356.44 504.179L359.167 501.406L358.455 500.705ZM353 506.25L352.287 505.549L349.56 508.321L350.273 509.023L350.986 509.724L353.713 506.951L353 506.25ZM347.545 511.795L346.833 511.094L344.105 513.867L344.818 514.568L345.531 515.269L348.258 512.497L347.545 511.795ZM342.091 517.341L341.378 516.64L338.651 519.412L339.364 520.114L340.077 520.815L342.804 518.042L342.091 517.341ZM336.636 522.886L335.923 522.185L333.196 524.958L333.909 525.659L334.622 526.36L337.349 523.588L336.636 522.886ZM331.182 528.432L330.469 527.731L327.742 530.503L328.455 531.205L329.167 531.906L331.895 529.133L331.182 528.432ZM325.727 533.977L325.014 533.276L322.287 536.049L323 536.75L323.713 537.451L326.44 534.679L325.727 533.977ZM320.273 539.523L319.56 538.821L316.833 541.594L317.545 542.295L318.258 542.997L320.986 540.224L320.273 539.523ZM314.818 545.068L314.105 544.367L311.378 547.14L312.091 547.841L312.804 548.542L315.531 545.769L314.818 545.068Z" fill="#6B7280"/>
<path d="M488 552L485.104 540.822L476.872 548.919L488 552ZM428 491L427.287 491.701L428.651 493.088L429.364 492.386L430.077 491.685L428.713 490.299L428 491ZM432.091 495.159L431.378 495.86L434.105 498.633L434.818 497.932L435.531 497.231L432.804 494.458L432.091 495.159ZM437.545 500.705L436.833 501.406L439.56 504.179L440.273 503.477L440.986 502.776L438.258 500.003L437.545 500.705ZM443 506.25L442.287 506.951L445.014 509.724L445.727 509.023L446.44 508.321L443.713 505.549L443 506.25ZM448.455 511.795L447.742 512.497L450.469 515.269L451.182 514.568L451.895 513.867L449.167 511.094L448.455 511.795ZM453.909 517.341L453.196 518.042L455.923 520.815L456.636 520.114L457.349 519.412L454.622 516.64L453.909 517.341ZM459.364 522.886L458.651 523.588L461.378 526.36L462.091 525.659L462.804 524.958L460.077 522.185L459.364 522.886ZM464.818 528.432L464.105 529.133L466.833 531.906L467.545 531.205L468.258 530.503L465.531 527.731L464.818 528.432ZM470.273 533.977L469.56 534.679L472.287 537.451L473 536.75L473.713 536.049L470.986 533.276L470.273 533.977ZM475.727 539.523L475.014 540.224L477.742 542.997L478.455 542.295L479.167 541.594L476.44 538.821L475.727 539.523ZM481.182 545.068L480.469 545.769L483.196 548.542L483.909 547.841L484.622 547.14L481.895 544.367L481.182 545.068Z" fill="#6B7280"/>
<path d="M391.486 193.577C339.029 192.651 357.714 143.52 363.972 129.754C364.846 127.869 367.04 127.046 368.994 127.834C386.943 135.103 385.692 106.2 384.354 93.5486C384.046 90.6 387.063 88.3886 389.754 89.6229C402.2 95.3486 404.823 112.149 405.372 120.206C405.56 122.931 408.389 124.766 410.892 123.669C412.04 123.171 413.069 122.486 414.029 121.646C415.794 120.12 418.469 120.394 419.789 122.297C460.229 180.566 410.909 193.92 391.486 193.577Z" fill="#F9A41A"/>
<path d="M396.629 198.72C344.172 197.794 362.857 148.663 369.114 134.897C369.989 133.011 372.183 132.189 374.137 132.977C392.086 140.246 390.834 111.343 389.497 98.6914C389.189 95.7429 392.206 93.5314 394.897 94.7657C407.343 100.491 409.966 117.291 410.514 125.349C410.703 128.074 413.532 129.909 416.034 128.811C417.183 128.314 418.212 127.629 419.172 126.789C420.937 125.263 423.612 125.537 424.932 127.44C465.372 185.709 416.052 199.063 396.629 198.72Z" fill="#FBE063"/>
<path d="M420.467 153.04V173.863C420.466 174.362 420.332 174.852 420.079 175.282C419.826 175.712 419.463 176.067 419.027 176.309L400.707 186.722C400.267 186.968 399.771 187.097 399.267 187.097C398.762 187.097 398.267 186.968 397.827 186.722L379.507 176.31C379.071 176.067 378.708 175.713 378.454 175.283C378.201 174.853 378.067 174.363 378.067 173.864V153.04C378.067 152.541 378.201 152.051 378.454 151.621C378.708 151.191 379.071 150.837 379.507 150.594L397.827 140.181C398.267 139.935 398.762 139.805 399.267 139.805C399.771 139.805 400.267 139.935 400.707 140.181L419.027 150.593C419.463 150.836 419.826 151.191 420.079 151.621C420.332 152.051 420.466 152.541 420.467 153.04Z" fill="#348EE8"/>
<path d="M399.267 139.533C399.605 139.533 399.938 139.621 400.232 139.789L419.753 150.888C420.053 151.058 420.301 151.306 420.475 151.604C420.648 151.903 420.739 152.241 420.738 152.586V174.598C420.738 174.941 420.647 175.279 420.474 175.575C420.301 175.872 420.052 176.117 419.753 176.286L400.232 187.385C399.938 187.552 399.605 187.641 399.267 187.641C398.928 187.641 398.595 187.552 398.301 187.385L378.78 176.286C378.481 176.115 378.232 175.869 378.059 175.57C377.885 175.272 377.795 174.933 377.795 174.588V152.576C377.795 152.233 377.886 151.895 378.06 151.599C378.233 151.302 378.481 151.057 378.78 150.888L398.301 139.789C398.595 139.621 398.928 139.533 399.267 139.533ZM399.267 143.874C399.098 143.874 398.933 143.92 398.788 144.006L382.196 153.436C382.045 153.52 381.92 153.643 381.832 153.792C381.744 153.941 381.699 154.112 381.699 154.285V172.89C381.699 173.063 381.745 173.233 381.832 173.382C381.92 173.531 382.045 173.655 382.196 173.739L398.788 183.168C398.933 183.254 399.098 183.3 399.267 183.3C399.435 183.3 399.6 183.254 399.745 183.168L416.337 173.739C416.488 173.655 416.614 173.531 416.701 173.382C416.789 173.233 416.835 173.063 416.835 172.89V154.285C416.835 154.112 416.789 153.941 416.701 153.792C416.614 153.643 416.488 153.52 416.337 153.436L399.745 144.006C399.6 143.92 399.435 143.874 399.267 143.874Z" fill="#6CBDFF"/>
<path d="M391.264 157.472C391 157.472 390.748 157.576 390.562 157.762C390.376 157.949 390.271 158.201 390.271 158.464V164.805L386.16 157.953C386.049 157.767 385.879 157.623 385.678 157.543C385.476 157.462 385.254 157.45 385.045 157.508C384.836 157.566 384.652 157.691 384.52 157.864C384.389 158.036 384.318 158.247 384.318 158.464V168.387C384.318 168.65 384.422 168.902 384.608 169.088C384.795 169.274 385.047 169.379 385.31 169.379C385.573 169.379 385.826 169.274 386.012 169.088C386.198 168.902 386.302 168.65 386.302 168.387V162.046L390.413 168.898C390.501 169.044 390.626 169.166 390.775 169.25C390.924 169.334 391.092 169.379 391.264 169.379C391.353 169.379 391.442 169.367 391.529 169.343C391.738 169.285 391.922 169.16 392.053 168.987C392.185 168.815 392.256 168.604 392.256 168.387V158.464C392.256 158.201 392.151 157.949 391.965 157.762C391.779 157.576 391.527 157.472 391.264 157.472Z" fill="white"/>
<path d="M403.171 157.472H397.217C396.954 157.472 396.702 157.576 396.515 157.762C396.329 157.949 396.225 158.201 396.225 158.464V168.387C396.225 168.65 396.329 168.902 396.515 169.088C396.702 169.274 396.954 169.379 397.217 169.379C397.48 169.379 397.733 169.274 397.919 169.088C398.105 168.902 398.209 168.65 398.209 168.387V164.418H401.186C401.449 164.418 401.702 164.313 401.888 164.127C402.074 163.941 402.178 163.688 402.178 163.425C402.178 163.162 402.074 162.91 401.888 162.724C401.702 162.538 401.449 162.433 401.186 162.433H398.209V159.456H403.171C403.434 159.456 403.686 159.352 403.872 159.166C404.058 158.98 404.163 158.727 404.163 158.464C404.163 158.201 404.058 157.949 403.872 157.762C403.686 157.576 403.434 157.472 403.171 157.472Z" fill="white"/>
<path d="M413.093 157.472H407.139C406.876 157.472 406.624 157.576 406.438 157.762C406.252 157.949 406.147 158.201 406.147 158.464C406.147 158.727 406.252 158.98 406.438 159.166C406.624 159.352 406.876 159.456 407.139 159.456H409.124V168.387C409.124 168.65 409.228 168.902 409.415 169.088C409.601 169.274 409.853 169.379 410.116 169.379C410.379 169.379 410.632 169.274 410.818 169.088C411.004 168.902 411.108 168.65 411.108 168.387V159.456H413.093C413.356 159.456 413.608 159.352 413.795 159.166C413.981 158.98 414.085 158.727 414.085 158.464C414.085 158.201 413.981 157.949 413.795 157.762C413.608 157.576 413.356 157.472 413.093 157.472Z" fill="white"/>
<path d="M362.738 224V212.364H367.397C368.253 212.364 368.967 212.491 369.539 212.744C370.111 212.998 370.541 213.35 370.829 213.801C371.117 214.248 371.261 214.763 371.261 215.347C371.261 215.801 371.17 216.201 370.988 216.545C370.806 216.886 370.556 217.167 370.238 217.386C369.924 217.602 369.564 217.756 369.158 217.847V217.96C369.602 217.979 370.016 218.104 370.403 218.335C370.793 218.566 371.109 218.89 371.352 219.307C371.594 219.72 371.715 220.212 371.715 220.784C371.715 221.402 371.562 221.953 371.255 222.438C370.952 222.919 370.503 223.299 369.908 223.58C369.314 223.86 368.581 224 367.71 224H362.738ZM365.198 221.989H367.204C367.889 221.989 368.389 221.858 368.704 221.597C369.018 221.331 369.175 220.979 369.175 220.54C369.175 220.218 369.098 219.934 368.942 219.688C368.787 219.441 368.566 219.248 368.278 219.108C367.994 218.968 367.655 218.898 367.261 218.898H365.198V221.989ZM365.198 217.233H367.022C367.359 217.233 367.658 217.174 367.92 217.057C368.185 216.936 368.393 216.765 368.545 216.545C368.7 216.326 368.778 216.062 368.778 215.756C368.778 215.335 368.628 214.996 368.329 214.739C368.033 214.481 367.613 214.352 367.067 214.352H365.198V217.233ZM378.867 220.284V215.273H381.288V224H378.964V222.415H378.873C378.676 222.926 378.348 223.337 377.89 223.648C377.435 223.958 376.88 224.114 376.225 224.114C375.642 224.114 375.129 223.981 374.685 223.716C374.242 223.451 373.896 223.074 373.646 222.585C373.399 222.097 373.274 221.511 373.271 220.83V215.273H375.691V220.398C375.695 220.913 375.833 221.32 376.106 221.619C376.379 221.919 376.744 222.068 377.202 222.068C377.494 222.068 377.767 222.002 378.021 221.869C378.274 221.733 378.479 221.532 378.634 221.267C378.793 221.002 378.871 220.674 378.867 220.284ZM383.224 224V215.273H385.57V216.795H385.661C385.82 216.254 386.087 215.845 386.462 215.568C386.837 215.288 387.269 215.148 387.758 215.148C387.879 215.148 388.01 215.155 388.15 215.17C388.29 215.186 388.413 215.206 388.519 215.233V217.381C388.406 217.347 388.248 217.316 388.048 217.29C387.847 217.263 387.663 217.25 387.496 217.25C387.14 217.25 386.822 217.328 386.542 217.483C386.265 217.634 386.046 217.847 385.883 218.119C385.724 218.392 385.644 218.706 385.644 219.062V224H383.224ZM392.191 218.955V224H389.771V215.273H392.077V216.812H392.18C392.373 216.305 392.697 215.903 393.151 215.608C393.606 215.309 394.157 215.159 394.805 215.159C395.411 215.159 395.939 215.292 396.39 215.557C396.841 215.822 397.191 216.201 397.441 216.693C397.691 217.182 397.816 217.765 397.816 218.443V224H395.396V218.875C395.399 218.341 395.263 217.924 394.987 217.625C394.71 217.322 394.329 217.17 393.844 217.17C393.519 217.17 393.231 217.241 392.981 217.381C392.735 217.521 392.541 217.725 392.401 217.994C392.265 218.259 392.195 218.58 392.191 218.955ZM413.205 212.364V224H411.08L406.018 216.676H405.933V224H403.472V212.364H405.631L410.654 219.682H410.756V212.364H413.205ZM415.238 224V212.364H422.942V214.392H417.698V217.165H422.431V219.193H417.698V224H415.238ZM424.154 214.392V212.364H433.711V214.392H430.148V224H427.717V214.392H424.154Z" fill="#2C2C2C"/>
<path d="M346.812 238.455C346.761 238.023 346.553 237.688 346.19 237.449C345.826 237.21 345.38 237.091 344.852 237.091C344.465 237.091 344.127 237.153 343.838 237.278C343.551 237.403 343.326 237.575 343.164 237.794C343.005 238.013 342.926 238.261 342.926 238.54C342.926 238.773 342.981 238.973 343.092 239.141C343.205 239.305 343.35 239.443 343.526 239.554C343.703 239.662 343.887 239.751 344.08 239.822C344.274 239.891 344.451 239.946 344.613 239.989L345.499 240.227C345.727 240.287 345.98 240.369 346.258 240.474C346.539 240.58 346.808 240.723 347.063 240.905C347.322 241.084 347.535 241.314 347.703 241.595C347.87 241.876 347.954 242.222 347.954 242.631C347.954 243.102 347.83 243.528 347.583 243.909C347.339 244.29 346.981 244.592 346.509 244.817C346.041 245.041 345.471 245.153 344.801 245.153C344.176 245.153 343.634 245.053 343.177 244.851C342.722 244.649 342.365 244.368 342.103 244.007C341.845 243.646 341.698 243.227 341.664 242.75H342.755C342.784 243.08 342.894 243.352 343.088 243.568C343.284 243.781 343.531 243.94 343.829 244.045C344.13 244.148 344.454 244.199 344.801 244.199C345.204 244.199 345.566 244.134 345.887 244.003C346.208 243.869 346.463 243.685 346.65 243.449C346.838 243.21 346.931 242.932 346.931 242.614C346.931 242.324 346.85 242.088 346.688 241.906C346.526 241.724 346.313 241.577 346.049 241.463C345.785 241.349 345.499 241.25 345.193 241.165L344.119 240.858C343.437 240.662 342.897 240.382 342.499 240.018C342.102 239.655 341.903 239.179 341.903 238.591C341.903 238.102 342.035 237.676 342.299 237.312C342.566 236.946 342.924 236.662 343.373 236.46C343.825 236.256 344.329 236.153 344.886 236.153C345.448 236.153 345.948 236.254 346.386 236.456C346.823 236.655 347.17 236.928 347.426 237.274C347.684 237.621 347.82 238.014 347.835 238.455H346.812ZM352.3 245.136C351.669 245.136 351.125 244.997 350.667 244.719C350.213 244.438 349.862 244.045 349.615 243.543C349.371 243.037 349.248 242.449 349.248 241.778C349.248 241.108 349.371 240.517 349.615 240.006C349.862 239.491 350.206 239.091 350.646 238.804C351.089 238.514 351.606 238.369 352.197 238.369C352.538 238.369 352.875 238.426 353.207 238.54C353.54 238.653 353.842 238.838 354.115 239.094C354.388 239.347 354.605 239.682 354.767 240.099C354.929 240.517 355.01 241.031 355.01 241.642V242.068H349.964V241.199H353.987C353.987 240.83 353.913 240.5 353.765 240.21C353.621 239.92 353.413 239.692 353.143 239.524C352.876 239.357 352.561 239.273 352.197 239.273C351.797 239.273 351.45 239.372 351.157 239.571C350.868 239.767 350.645 240.023 350.488 240.338C350.332 240.653 350.254 240.991 350.254 241.352V241.932C350.254 242.426 350.339 242.845 350.51 243.189C350.683 243.53 350.923 243.79 351.23 243.969C351.537 244.145 351.893 244.233 352.3 244.233C352.564 244.233 352.802 244.196 353.015 244.122C353.231 244.045 353.417 243.932 353.574 243.781C353.73 243.628 353.851 243.437 353.936 243.21L354.907 243.483C354.805 243.812 354.633 244.102 354.392 244.352C354.15 244.599 353.852 244.793 353.497 244.932C353.142 245.068 352.743 245.136 352.3 245.136ZM357.545 236.273V245H356.54V236.273H357.545ZM360.393 236.273V245H359.387V236.273H360.393ZM373.11 240.636C373.11 241.557 372.944 242.352 372.611 243.023C372.279 243.693 371.823 244.21 371.243 244.574C370.664 244.938 370.002 245.119 369.258 245.119C368.513 245.119 367.851 244.938 367.272 244.574C366.692 244.21 366.236 243.693 365.904 243.023C365.572 242.352 365.405 241.557 365.405 240.636C365.405 239.716 365.572 238.92 365.904 238.25C366.236 237.58 366.692 237.062 367.272 236.699C367.851 236.335 368.513 236.153 369.258 236.153C370.002 236.153 370.664 236.335 371.243 236.699C371.823 237.062 372.279 237.58 372.611 238.25C372.944 238.92 373.11 239.716 373.11 240.636ZM372.087 240.636C372.087 239.881 371.961 239.243 371.708 238.723C371.458 238.203 371.118 237.81 370.689 237.543C370.263 237.276 369.786 237.142 369.258 237.142C368.729 237.142 368.251 237.276 367.822 237.543C367.395 237.81 367.056 238.203 366.803 238.723C366.553 239.243 366.428 239.881 366.428 240.636C366.428 241.392 366.553 242.03 366.803 242.55C367.056 243.07 367.395 243.463 367.822 243.73C368.251 243.997 368.729 244.131 369.258 244.131C369.786 244.131 370.263 243.997 370.689 243.73C371.118 243.463 371.458 243.07 371.708 242.55C371.961 242.03 372.087 241.392 372.087 240.636ZM374.751 245V238.455H375.722V239.443H375.79C375.91 239.119 376.126 238.857 376.438 238.655C376.751 238.453 377.103 238.352 377.495 238.352C377.569 238.352 377.661 238.354 377.772 238.357C377.883 238.359 377.966 238.364 378.023 238.369V239.392C377.989 239.384 377.911 239.371 377.789 239.354C377.67 239.334 377.543 239.324 377.41 239.324C377.091 239.324 376.807 239.391 376.557 239.524C376.31 239.655 376.114 239.837 375.969 240.07C375.827 240.3 375.756 240.562 375.756 240.858V245H374.751ZM381.488 245.136C380.942 245.136 380.461 244.999 380.043 244.723C379.626 244.445 379.299 244.053 379.063 243.547C378.827 243.038 378.709 242.438 378.709 241.744C378.709 241.057 378.827 240.46 379.063 239.955C379.299 239.449 379.627 239.058 380.047 238.783C380.468 238.507 380.954 238.369 381.505 238.369C381.931 238.369 382.268 238.44 382.515 238.582C382.765 238.722 382.955 238.881 383.086 239.06C383.219 239.236 383.323 239.381 383.397 239.494H383.482V236.273H384.488V245H383.516V243.994H383.397C383.323 244.114 383.218 244.264 383.081 244.446C382.945 244.625 382.751 244.786 382.498 244.928C382.245 245.067 381.908 245.136 381.488 245.136ZM381.624 244.233C382.028 244.233 382.368 244.128 382.647 243.918C382.925 243.705 383.137 243.411 383.282 243.036C383.427 242.658 383.499 242.222 383.499 241.727C383.499 241.239 383.428 240.811 383.286 240.445C383.144 240.075 382.934 239.788 382.655 239.584C382.377 239.376 382.033 239.273 381.624 239.273C381.198 239.273 380.843 239.382 380.559 239.601C380.278 239.817 380.066 240.111 379.924 240.483C379.785 240.852 379.715 241.267 379.715 241.727C379.715 242.193 379.786 242.616 379.928 242.997C380.073 243.375 380.286 243.676 380.567 243.901C380.851 244.122 381.204 244.233 381.624 244.233ZM389.214 245.136C388.583 245.136 388.039 244.997 387.581 244.719C387.127 244.438 386.776 244.045 386.529 243.543C386.285 243.037 386.162 242.449 386.162 241.778C386.162 241.108 386.285 240.517 386.529 240.006C386.776 239.491 387.12 239.091 387.56 238.804C388.003 238.514 388.52 238.369 389.111 238.369C389.452 238.369 389.789 238.426 390.121 238.54C390.454 238.653 390.756 238.838 391.029 239.094C391.302 239.347 391.519 239.682 391.681 240.099C391.843 240.517 391.924 241.031 391.924 241.642V242.068H386.878V241.199H390.901C390.901 240.83 390.827 240.5 390.68 240.21C390.535 239.92 390.327 239.692 390.057 239.524C389.79 239.357 389.475 239.273 389.111 239.273C388.711 239.273 388.364 239.372 388.072 239.571C387.782 239.767 387.559 240.023 387.403 240.338C387.246 240.653 387.168 240.991 387.168 241.352V241.932C387.168 242.426 387.253 242.845 387.424 243.189C387.597 243.53 387.837 243.79 388.144 243.969C388.451 244.145 388.807 244.233 389.214 244.233C389.478 244.233 389.716 244.196 389.93 244.122C390.145 244.045 390.331 243.932 390.488 243.781C390.644 243.628 390.765 243.437 390.85 243.21L391.822 243.483C391.719 243.812 391.547 244.102 391.306 244.352C391.064 244.599 390.766 244.793 390.411 244.932C390.056 245.068 389.657 245.136 389.214 245.136ZM393.454 245V238.455H394.425V239.443H394.493C394.613 239.119 394.829 238.857 395.141 238.655C395.454 238.453 395.806 238.352 396.198 238.352C396.272 238.352 396.364 238.354 396.475 238.357C396.586 238.359 396.67 238.364 396.726 238.369V239.392C396.692 239.384 396.614 239.371 396.492 239.354C396.373 239.334 396.246 239.324 396.113 239.324C395.795 239.324 395.51 239.391 395.26 239.524C395.013 239.655 394.817 239.837 394.672 240.07C394.53 240.3 394.459 240.562 394.459 240.858V245H393.454ZM400.953 237.21V236.273H407.498V237.21H404.754V245H403.697V237.21H400.953ZM408.313 245V238.455H409.285V239.443H409.353C409.472 239.119 409.688 238.857 410.001 238.655C410.313 238.453 410.665 238.352 411.057 238.352C411.131 238.352 411.224 238.354 411.334 238.357C411.445 238.359 411.529 238.364 411.586 238.369V239.392C411.552 239.384 411.474 239.371 411.351 239.354C411.232 239.334 411.106 239.324 410.972 239.324C410.654 239.324 410.37 239.391 410.12 239.524C409.873 239.655 409.677 239.837 409.532 240.07C409.39 240.3 409.319 240.562 409.319 240.858V245H408.313ZM412.778 245V238.455H413.784V245H412.778ZM413.289 237.364C413.093 237.364 412.924 237.297 412.782 237.163C412.643 237.03 412.573 236.869 412.573 236.682C412.573 236.494 412.643 236.334 412.782 236.2C412.924 236.067 413.093 236 413.289 236C413.485 236 413.653 236.067 413.792 236.2C413.934 236.334 414.005 236.494 414.005 236.682C414.005 236.869 413.934 237.03 413.792 237.163C413.653 237.297 413.485 237.364 413.289 237.364ZM418.268 247.591C417.782 247.591 417.364 247.528 417.015 247.403C416.665 247.281 416.374 247.119 416.141 246.918C415.911 246.719 415.728 246.506 415.591 246.278L416.393 245.716C416.483 245.835 416.599 245.972 416.738 246.125C416.877 246.281 417.067 246.416 417.309 246.53C417.553 246.646 417.873 246.705 418.268 246.705C418.796 246.705 419.232 246.577 419.576 246.321C419.92 246.065 420.091 245.665 420.091 245.119V243.79H420.006C419.932 243.909 419.827 244.057 419.691 244.233C419.557 244.406 419.364 244.561 419.111 244.697C418.861 244.831 418.523 244.898 418.097 244.898C417.569 244.898 417.094 244.773 416.674 244.523C416.256 244.273 415.925 243.909 415.681 243.432C415.439 242.955 415.319 242.375 415.319 241.693C415.319 241.023 415.437 240.439 415.672 239.942C415.908 239.442 416.236 239.055 416.657 238.783C417.077 238.507 417.563 238.369 418.114 238.369C418.54 238.369 418.878 238.44 419.128 238.582C419.381 238.722 419.574 238.881 419.708 239.06C419.844 239.236 419.949 239.381 420.023 239.494H420.126V238.455H421.097V245.188C421.097 245.75 420.969 246.207 420.714 246.56C420.461 246.915 420.12 247.175 419.691 247.339C419.265 247.507 418.79 247.591 418.268 247.591ZM418.233 243.994C418.637 243.994 418.978 243.902 419.256 243.717C419.535 243.533 419.746 243.267 419.891 242.92C420.036 242.574 420.108 242.159 420.108 241.676C420.108 241.205 420.037 240.788 419.895 240.428C419.753 240.067 419.543 239.784 419.265 239.58C418.986 239.375 418.643 239.273 418.233 239.273C417.807 239.273 417.452 239.381 417.168 239.597C416.887 239.812 416.675 240.102 416.533 240.466C416.394 240.83 416.324 241.233 416.324 241.676C416.324 242.131 416.395 242.533 416.537 242.882C416.682 243.229 416.895 243.501 417.177 243.7C417.461 243.896 417.813 243.994 418.233 243.994ZM425.58 247.591C425.094 247.591 424.677 247.528 424.327 247.403C423.978 247.281 423.687 247.119 423.454 246.918C423.224 246.719 423.04 246.506 422.904 246.278L423.705 245.716C423.796 245.835 423.911 245.972 424.05 246.125C424.189 246.281 424.38 246.416 424.621 246.53C424.866 246.646 425.185 246.705 425.58 246.705C426.108 246.705 426.545 246.577 426.888 246.321C427.232 246.065 427.404 245.665 427.404 245.119V243.79H427.319C427.245 243.909 427.14 244.057 427.003 244.233C426.87 244.406 426.677 244.561 426.424 244.697C426.174 244.831 425.836 244.898 425.41 244.898C424.881 244.898 424.407 244.773 423.986 244.523C423.569 244.273 423.238 243.909 422.993 243.432C422.752 242.955 422.631 242.375 422.631 241.693C422.631 241.023 422.749 240.439 422.985 239.942C423.221 239.442 423.549 239.055 423.969 238.783C424.39 238.507 424.876 238.369 425.427 238.369C425.853 238.369 426.191 238.44 426.441 238.582C426.694 238.722 426.887 238.881 427.02 239.06C427.157 239.236 427.262 239.381 427.336 239.494H427.438V238.455H428.41V245.188C428.41 245.75 428.282 246.207 428.026 246.56C427.773 246.915 427.432 247.175 427.003 247.339C426.577 247.507 426.103 247.591 425.58 247.591ZM425.546 243.994C425.949 243.994 426.29 243.902 426.569 243.717C426.847 243.533 427.059 243.267 427.204 242.92C427.349 242.574 427.421 242.159 427.421 241.676C427.421 241.205 427.35 240.788 427.208 240.428C427.066 240.067 426.856 239.784 426.577 239.58C426.299 239.375 425.955 239.273 425.546 239.273C425.12 239.273 424.765 239.381 424.481 239.597C424.199 239.812 423.988 240.102 423.846 240.466C423.706 240.83 423.637 241.233 423.637 241.676C423.637 242.131 423.708 242.533 423.85 242.882C423.995 243.229 424.208 243.501 424.489 243.7C424.773 243.896 425.126 243.994 425.546 243.994ZM432.995 245.136C432.364 245.136 431.82 244.997 431.363 244.719C430.908 244.438 430.557 244.045 430.31 243.543C430.066 243.037 429.944 242.449 429.944 241.778C429.944 241.108 430.066 240.517 430.31 240.006C430.557 239.491 430.901 239.091 431.341 238.804C431.785 238.514 432.302 238.369 432.893 238.369C433.233 238.369 433.57 238.426 433.903 238.54C434.235 238.653 434.537 238.838 434.81 239.094C435.083 239.347 435.3 239.682 435.462 240.099C435.624 240.517 435.705 241.031 435.705 241.642V242.068H430.66V241.199H434.682C434.682 240.83 434.608 240.5 434.461 240.21C434.316 239.92 434.108 239.692 433.839 239.524C433.572 239.357 433.256 239.273 432.893 239.273C432.492 239.273 432.145 239.372 431.853 239.571C431.563 239.767 431.34 240.023 431.184 240.338C431.028 240.653 430.949 240.991 430.949 241.352V241.932C430.949 242.426 431.035 242.845 431.205 243.189C431.378 243.53 431.618 243.79 431.925 243.969C432.232 244.145 432.589 244.233 432.995 244.233C433.259 244.233 433.498 244.196 433.711 244.122C433.927 244.045 434.113 243.932 434.269 243.781C434.425 243.628 434.546 243.437 434.631 243.21L435.603 243.483C435.501 243.812 435.329 244.102 435.087 244.352C434.846 244.599 434.547 244.793 434.192 244.932C433.837 245.068 433.438 245.136 432.995 245.136ZM437.235 245V238.455H438.206V239.443H438.275C438.394 239.119 438.61 238.857 438.922 238.655C439.235 238.453 439.587 238.352 439.979 238.352C440.053 238.352 440.145 238.354 440.256 238.357C440.367 238.359 440.451 238.364 440.508 238.369V239.392C440.474 239.384 440.395 239.371 440.273 239.354C440.154 239.334 440.028 239.324 439.894 239.324C439.576 239.324 439.292 239.391 439.042 239.524C438.795 239.655 438.599 239.837 438.454 240.07C438.312 240.3 438.241 240.562 438.241 240.858V245H437.235ZM444.245 245.136C443.614 245.136 443.07 244.997 442.613 244.719C442.158 244.438 441.807 244.045 441.56 243.543C441.316 243.037 441.194 242.449 441.194 241.778C441.194 241.108 441.316 240.517 441.56 240.006C441.807 239.491 442.151 239.091 442.591 238.804C443.035 238.514 443.552 238.369 444.143 238.369C444.483 238.369 444.82 238.426 445.153 238.54C445.485 238.653 445.787 238.838 446.06 239.094C446.333 239.347 446.55 239.682 446.712 240.099C446.874 240.517 446.955 241.031 446.955 241.642V242.068H441.91V241.199H445.932C445.932 240.83 445.858 240.5 445.711 240.21C445.566 239.92 445.358 239.692 445.089 239.524C444.822 239.357 444.506 239.273 444.143 239.273C443.742 239.273 443.395 239.372 443.103 239.571C442.813 239.767 442.59 240.023 442.434 240.338C442.278 240.653 442.199 240.991 442.199 241.352V241.932C442.199 242.426 442.285 242.845 442.455 243.189C442.628 243.53 442.868 243.79 443.175 243.969C443.482 244.145 443.839 244.233 444.245 244.233C444.509 244.233 444.748 244.196 444.961 244.122C445.177 244.045 445.363 243.932 445.519 243.781C445.675 243.628 445.796 243.437 445.881 243.21L446.853 243.483C446.751 243.812 446.579 244.102 446.337 244.352C446.096 244.599 445.797 244.793 445.442 244.932C445.087 245.068 444.688 245.136 444.245 245.136ZM450.956 245.136C450.411 245.136 449.93 244.999 449.512 244.723C449.094 244.445 448.768 244.053 448.532 243.547C448.296 243.038 448.178 242.438 448.178 241.744C448.178 241.057 448.296 240.46 448.532 239.955C448.768 239.449 449.096 239.058 449.516 238.783C449.937 238.507 450.422 238.369 450.974 238.369C451.4 238.369 451.736 238.44 451.983 238.582C452.233 238.722 452.424 238.881 452.555 239.06C452.688 239.236 452.792 239.381 452.866 239.494H452.951V236.273H453.956V245H452.985V243.994H452.866C452.792 244.114 452.687 244.264 452.55 244.446C452.414 244.625 452.219 244.786 451.966 244.928C451.714 245.067 451.377 245.136 450.956 245.136ZM451.093 244.233C451.496 244.233 451.837 244.128 452.116 243.918C452.394 243.705 452.606 243.411 452.751 243.036C452.895 242.658 452.968 242.222 452.968 241.727C452.968 241.239 452.897 240.811 452.755 240.445C452.613 240.075 452.403 239.788 452.124 239.584C451.846 239.376 451.502 239.273 451.093 239.273C450.667 239.273 450.312 239.382 450.028 239.601C449.746 239.817 449.535 240.111 449.393 240.483C449.253 240.852 449.184 241.267 449.184 241.727C449.184 242.193 449.255 242.616 449.397 242.997C449.542 243.375 449.755 243.676 450.036 243.901C450.32 244.122 450.672 244.233 451.093 244.233Z" fill="#2C2C2C"/>
<path d="M446.051 335.589V393.994C446.051 400.406 440.857 405.6 434.463 405.6H408.989V410.434C408.989 415.217 412.863 419.091 417.646 419.091C419.446 419.091 421.16 420.223 421.623 421.971C422 423.394 421.537 424.783 420.611 425.709C419.909 426.411 418.931 426.857 417.851 426.857H373.194C371.137 426.857 369.251 425.349 369.097 423.291C368.994 422.091 369.44 420.994 370.211 420.24C370.931 419.52 371.891 419.091 372.971 419.091H373.451C378.234 419.091 382.109 415.217 382.109 410.434V405.6H356.394C349.983 405.6 344.806 400.406 344.806 393.994V335.589C344.806 329.177 349.983 324 356.394 324H434.463C440.857 324 446.051 329.177 446.051 335.589Z" fill="#BEBEBE"/>
<path d="M451.194 340.731V399.137C451.194 405.549 446 410.743 439.589 410.743H361.52C355.109 410.743 349.931 405.549 349.931 399.137V340.731C349.931 334.303 355.109 329.126 361.52 329.126H439.589C446 329.143 451.194 334.32 451.194 340.731Z" fill="#EFEFED"/>
<path d="M374.223 338.571H358.52C358.04 338.571 357.663 338.194 357.663 337.714C357.663 337.234 358.04 336.857 358.52 336.857H374.223C374.703 336.857 375.08 337.234 375.08 337.714C375.08 338.194 374.686 338.571 374.223 338.571Z" fill="#E2E2E0"/>
<path d="M367.537 345.72H358.52C358.04 345.72 357.663 345.343 357.663 344.863C357.663 344.383 358.04 344.006 358.52 344.006H367.537C368.017 344.006 368.394 344.383 368.394 344.863C368.394 345.343 368.017 345.72 367.537 345.72Z" fill="#E2E2E0"/>
<path d="M349.948 395.811V399.137C349.948 405.549 355.126 410.743 361.537 410.743H439.606C446.017 410.743 451.211 405.549 451.211 399.137V395.811H349.948Z" fill="white"/>
<path d="M426.766 427.114C427.143 428.554 426.68 429.926 425.754 430.851C425.051 431.554 424.074 432 422.994 432H378.337C376.263 432 374.394 430.491 374.223 428.434C374.12 427.234 374.583 426.137 375.354 425.383C376.057 424.68 377.034 424.234 378.114 424.234H378.594C383.377 424.234 387.251 420.36 387.251 415.577V410.743H414.148V415.577C414.148 420.36 418.023 424.234 422.806 424.234C424.588 424.234 426.303 425.366 426.766 427.114Z" fill="white"/>
<path d="M387.234 410.743H414.131V413.657H387.234V410.743Z" fill="#BEBEBE"/>
<path d="M413 404.143H388.143C387.663 404.143 387.286 403.766 387.286 403.286C387.286 402.806 387.663 402.429 388.143 402.429H413C413.48 402.429 413.857 402.806 413.857 403.286C413.857 403.766 413.48 404.143 413 404.143Z" fill="#BEBEBE"/>
<path d="M400.571 388.817C412.993 388.817 423.063 378.747 423.063 366.326C423.063 353.904 412.993 343.834 400.571 343.834C388.15 343.834 378.08 353.904 378.08 366.326C378.08 378.747 388.15 388.817 400.571 388.817Z" fill="#FBE063"/>
<path d="M400.571 381.137C408.751 381.137 415.383 374.506 415.383 366.326C415.383 358.146 408.751 351.514 400.571 351.514C392.391 351.514 385.76 358.146 385.76 366.326C385.76 374.506 392.391 381.137 400.571 381.137Z" fill="#F9A41A"/>
<path d="M396.68 359.229C397.485 358.354 398.617 357.909 400.057 357.891V356.451H401.085V357.874C402.525 357.977 403.623 358.406 404.394 359.143C405.165 359.88 405.56 360.874 405.594 362.109H403.691C403.64 361.56 403.485 361.08 403.245 360.686C402.783 359.949 402.063 359.571 401.068 359.537V364.8C402.748 365.263 403.88 365.709 404.48 366.12C405.457 366.806 405.937 367.8 405.937 369.137C405.937 371.057 405.32 372.429 404.068 373.234C403.383 373.68 402.371 373.971 401.068 374.126V376.234H400.04V374.126C397.931 373.989 396.508 373.251 395.771 371.897C395.36 371.16 395.154 370.183 395.154 368.949H397.074C397.125 369.943 397.28 370.663 397.537 371.109C397.983 371.931 398.823 372.377 400.023 372.48V366.583C398.463 366.291 397.314 365.794 396.577 365.091C395.84 364.389 395.463 363.446 395.463 362.211C395.48 361.097 395.874 360.103 396.68 359.229ZM398.137 363.737C398.617 364.149 399.251 364.423 400.04 364.577V359.486C399.097 359.52 398.428 359.811 398.017 360.36C397.623 360.909 397.417 361.474 397.417 362.057C397.434 362.777 397.657 363.343 398.137 363.737ZM403.657 371.16C403.897 370.731 404.017 370.217 404.017 369.651C404.017 368.743 403.691 368.057 403.023 367.594C402.645 367.32 401.994 367.063 401.103 366.823V372.514C402.337 372.446 403.177 372 403.657 371.16Z" fill="#FBE063"/>
<path d="M416.326 383.006L414.371 372.189C414.097 370.714 415.383 369.429 416.84 369.703L427.674 371.657C429.371 371.966 430.023 374.04 428.806 375.274L427.383 376.697L434.291 383.606C435.114 384.429 435.131 385.783 434.291 386.623L431.274 389.64C430.451 390.463 429.097 390.463 428.257 389.623L421.349 382.714L419.926 384.137C418.709 385.354 416.634 384.703 416.326 383.006Z" fill="#54E28E"/>
<path d="M350.535 458V446.364H358.376V448.392H352.995V451.165H357.972V453.193H352.995V455.972H358.398V458H350.535ZM362.309 449.273L363.911 452.324L365.553 449.273H368.036L365.508 453.636L368.104 458H365.633L363.911 454.983L362.218 458H359.718L362.309 453.636L359.809 449.273H362.309ZM373.138 458.17C372.241 458.17 371.468 457.989 370.82 457.625C370.176 457.258 369.68 456.739 369.332 456.068C368.983 455.394 368.809 454.597 368.809 453.676C368.809 452.778 368.983 451.991 369.332 451.312C369.68 450.634 370.171 450.106 370.803 449.727C371.44 449.348 372.186 449.159 373.042 449.159C373.618 449.159 374.154 449.252 374.65 449.438C375.15 449.619 375.585 449.894 375.957 450.261C376.332 450.629 376.623 451.091 376.832 451.648C377.04 452.201 377.144 452.848 377.144 453.591V454.256H369.775V452.756H374.866C374.866 452.407 374.79 452.098 374.638 451.83C374.487 451.561 374.277 451.35 374.008 451.199C373.743 451.044 373.434 450.966 373.082 450.966C372.714 450.966 372.388 451.051 372.104 451.222C371.824 451.388 371.604 451.614 371.445 451.898C371.286 452.178 371.205 452.491 371.201 452.835V454.261C371.201 454.693 371.281 455.066 371.44 455.381C371.603 455.695 371.832 455.938 372.127 456.108C372.423 456.278 372.773 456.364 373.178 456.364C373.447 456.364 373.693 456.326 373.917 456.25C374.14 456.174 374.332 456.061 374.491 455.909C374.65 455.758 374.771 455.572 374.854 455.352L377.093 455.5C376.979 456.038 376.746 456.508 376.394 456.909C376.046 457.307 375.595 457.617 375.042 457.841C374.493 458.061 373.858 458.17 373.138 458.17ZM382.667 458.17C381.773 458.17 381.004 457.981 380.36 457.602C379.72 457.22 379.228 456.689 378.883 456.011C378.542 455.333 378.371 454.553 378.371 453.67C378.371 452.777 378.544 451.992 378.888 451.318C379.237 450.64 379.731 450.112 380.371 449.733C381.012 449.35 381.773 449.159 382.656 449.159C383.417 449.159 384.084 449.297 384.656 449.574C385.228 449.85 385.68 450.239 386.013 450.739C386.347 451.239 386.531 451.826 386.565 452.5H384.281C384.216 452.064 384.046 451.714 383.769 451.449C383.496 451.18 383.138 451.045 382.695 451.045C382.32 451.045 381.993 451.148 381.712 451.352C381.436 451.553 381.22 451.847 381.065 452.233C380.909 452.619 380.832 453.087 380.832 453.636C380.832 454.193 380.907 454.667 381.059 455.057C381.214 455.447 381.432 455.744 381.712 455.949C381.993 456.153 382.32 456.256 382.695 456.256C382.972 456.256 383.22 456.199 383.44 456.085C383.663 455.972 383.847 455.807 383.991 455.591C384.138 455.371 384.235 455.108 384.281 454.801H386.565C386.527 455.468 386.345 456.055 386.019 456.562C385.697 457.066 385.252 457.46 384.684 457.744C384.116 458.028 383.443 458.17 382.667 458.17ZM393.711 454.284V449.273H396.131V458H393.808V456.415H393.717C393.52 456.926 393.192 457.337 392.734 457.648C392.279 457.958 391.724 458.114 391.069 458.114C390.486 458.114 389.972 457.981 389.529 457.716C389.086 457.451 388.739 457.074 388.489 456.585C388.243 456.097 388.118 455.511 388.114 454.83V449.273H390.535V454.398C390.539 454.913 390.677 455.32 390.95 455.619C391.222 455.919 391.588 456.068 392.046 456.068C392.338 456.068 392.611 456.002 392.864 455.869C393.118 455.733 393.323 455.532 393.478 455.267C393.637 455.002 393.715 454.674 393.711 454.284ZM402.71 449.273V451.091H397.454V449.273H402.71ZM398.647 447.182H401.067V455.318C401.067 455.542 401.102 455.716 401.17 455.841C401.238 455.962 401.333 456.047 401.454 456.097C401.579 456.146 401.723 456.17 401.886 456.17C401.999 456.17 402.113 456.161 402.227 456.142C402.34 456.119 402.427 456.102 402.488 456.091L402.869 457.892C402.747 457.93 402.577 457.973 402.357 458.023C402.138 458.076 401.871 458.108 401.556 458.119C400.973 458.142 400.461 458.064 400.022 457.886C399.586 457.708 399.247 457.432 399.005 457.057C398.763 456.682 398.643 456.208 398.647 455.636V447.182ZM408.17 458.17C407.272 458.17 406.499 457.989 405.852 457.625C405.208 457.258 404.711 456.739 404.363 456.068C404.014 455.394 403.84 454.597 403.84 453.676C403.84 452.778 404.014 451.991 404.363 451.312C404.711 450.634 405.202 450.106 405.835 449.727C406.471 449.348 407.217 449.159 408.073 449.159C408.649 449.159 409.185 449.252 409.681 449.438C410.181 449.619 410.617 449.894 410.988 450.261C411.363 450.629 411.655 451.091 411.863 451.648C412.071 452.201 412.175 452.848 412.175 453.591V454.256H404.806V452.756H409.897C409.897 452.407 409.821 452.098 409.67 451.83C409.518 451.561 409.308 451.35 409.039 451.199C408.774 451.044 408.465 450.966 408.113 450.966C407.746 450.966 407.42 451.051 407.136 451.222C406.855 451.388 406.636 451.614 406.477 451.898C406.317 452.178 406.236 452.491 406.232 452.835V454.261C406.232 454.693 406.312 455.066 406.471 455.381C406.634 455.695 406.863 455.938 407.158 456.108C407.454 456.278 407.804 456.364 408.21 456.364C408.478 456.364 408.725 456.326 408.948 456.25C409.172 456.174 409.363 456.061 409.522 455.909C409.681 455.758 409.802 455.572 409.886 455.352L412.124 455.5C412.011 456.038 411.778 456.508 411.425 456.909C411.077 457.307 410.626 457.617 410.073 457.841C409.524 458.061 408.889 458.17 408.17 458.17ZM423.816 449.71C423.771 449.252 423.576 448.896 423.231 448.642C422.886 448.388 422.418 448.261 421.827 448.261C421.426 448.261 421.087 448.318 420.81 448.432C420.534 448.542 420.322 448.695 420.174 448.892C420.03 449.089 419.958 449.312 419.958 449.562C419.951 449.771 419.994 449.953 420.089 450.108C420.187 450.263 420.322 450.398 420.492 450.511C420.663 450.621 420.86 450.718 421.083 450.801C421.307 450.881 421.545 450.949 421.799 451.006L422.844 451.256C423.352 451.369 423.818 451.521 424.242 451.71C424.666 451.9 425.034 452.133 425.344 452.409C425.655 452.686 425.896 453.011 426.066 453.386C426.24 453.761 426.329 454.191 426.333 454.676C426.329 455.388 426.147 456.006 425.788 456.528C425.432 457.047 424.916 457.451 424.242 457.739C423.572 458.023 422.763 458.165 421.816 458.165C420.877 458.165 420.058 458.021 419.362 457.733C418.668 457.445 418.127 457.019 417.737 456.455C417.35 455.886 417.147 455.184 417.129 454.347H419.509C419.536 454.737 419.647 455.062 419.844 455.324C420.045 455.581 420.312 455.777 420.646 455.909C420.983 456.038 421.363 456.102 421.788 456.102C422.204 456.102 422.566 456.042 422.873 455.92C423.183 455.799 423.424 455.631 423.594 455.415C423.765 455.199 423.85 454.951 423.85 454.67C423.85 454.409 423.772 454.189 423.617 454.011C423.466 453.833 423.242 453.682 422.947 453.557C422.655 453.432 422.297 453.318 421.873 453.216L420.606 452.898C419.625 452.659 418.85 452.286 418.282 451.778C417.714 451.271 417.432 450.587 417.435 449.727C417.432 449.023 417.619 448.407 417.998 447.881C418.38 447.354 418.905 446.943 419.572 446.648C420.238 446.352 420.996 446.205 421.844 446.205C422.708 446.205 423.462 446.352 424.106 446.648C424.754 446.943 425.257 447.354 425.617 447.881C425.977 448.407 426.163 449.017 426.174 449.71H423.816ZM430.431 458.165C429.874 458.165 429.378 458.068 428.942 457.875C428.507 457.678 428.162 457.388 427.908 457.006C427.658 456.619 427.533 456.138 427.533 455.562C427.533 455.078 427.622 454.67 427.8 454.341C427.978 454.011 428.221 453.746 428.528 453.545C428.835 453.345 429.183 453.193 429.573 453.091C429.967 452.989 430.38 452.917 430.812 452.875C431.319 452.822 431.728 452.773 432.039 452.727C432.35 452.678 432.575 452.606 432.715 452.511C432.855 452.417 432.925 452.277 432.925 452.091V452.057C432.925 451.697 432.812 451.419 432.585 451.222C432.361 451.025 432.043 450.926 431.63 450.926C431.194 450.926 430.848 451.023 430.59 451.216C430.333 451.405 430.162 451.644 430.079 451.932L427.84 451.75C427.954 451.22 428.177 450.761 428.511 450.375C428.844 449.985 429.274 449.686 429.8 449.477C430.331 449.265 430.944 449.159 431.641 449.159C432.126 449.159 432.59 449.216 433.033 449.33C433.48 449.443 433.876 449.619 434.221 449.858C434.569 450.097 434.844 450.403 435.045 450.778C435.246 451.15 435.346 451.595 435.346 452.114V458H433.05V456.79H432.982C432.842 457.062 432.655 457.303 432.42 457.511C432.185 457.716 431.903 457.877 431.573 457.994C431.244 458.108 430.863 458.165 430.431 458.165ZM431.124 456.494C431.48 456.494 431.795 456.424 432.067 456.284C432.34 456.14 432.554 455.947 432.71 455.705C432.865 455.462 432.942 455.187 432.942 454.881V453.955C432.867 454.004 432.763 454.049 432.63 454.091C432.501 454.129 432.355 454.165 432.192 454.199C432.03 454.229 431.867 454.258 431.704 454.284C431.541 454.307 431.393 454.328 431.261 454.347C430.977 454.388 430.728 454.455 430.516 454.545C430.304 454.636 430.139 454.759 430.022 454.915C429.905 455.066 429.846 455.256 429.846 455.483C429.846 455.812 429.965 456.064 430.204 456.239C430.446 456.409 430.753 456.494 431.124 456.494ZM439.644 446.364V458H437.224V446.364H439.644ZM445.56 458.17C444.663 458.17 443.89 457.989 443.242 457.625C442.598 457.258 442.102 456.739 441.754 456.068C441.405 455.394 441.231 454.597 441.231 453.676C441.231 452.778 441.405 451.991 441.754 451.312C442.102 450.634 442.593 450.106 443.225 449.727C443.862 449.348 444.608 449.159 445.464 449.159C446.04 449.159 446.576 449.252 447.072 449.438C447.572 449.619 448.007 449.894 448.379 450.261C448.754 450.629 449.045 451.091 449.254 451.648C449.462 452.201 449.566 452.848 449.566 453.591V454.256H442.197V452.756H447.288C447.288 452.407 447.212 452.098 447.06 451.83C446.909 451.561 446.699 451.35 446.43 451.199C446.165 451.044 445.856 450.966 445.504 450.966C445.136 450.966 444.81 451.051 444.526 451.222C444.246 451.388 444.026 451.614 443.867 451.898C443.708 452.178 443.627 452.491 443.623 452.835V454.261C443.623 454.693 443.702 455.066 443.862 455.381C444.024 455.695 444.254 455.938 444.549 456.108C444.844 456.278 445.195 456.364 445.6 456.364C445.869 456.364 446.115 456.326 446.339 456.25C446.562 456.174 446.754 456.061 446.913 455.909C447.072 455.758 447.193 455.572 447.276 455.352L449.515 455.5C449.401 456.038 449.168 456.508 448.816 456.909C448.468 457.307 448.017 457.617 447.464 457.841C446.915 458.061 446.28 458.17 445.56 458.17Z" fill="#2C2C2C"/>
<path d="M358.141 479V470.273H361.09C361.771 470.273 362.331 470.389 362.769 470.622C363.206 470.852 363.53 471.169 363.74 471.572C363.95 471.976 364.056 472.435 364.056 472.949C364.056 473.463 363.95 473.919 363.74 474.317C363.53 474.714 363.208 475.027 362.773 475.254C362.338 475.479 361.783 475.591 361.107 475.591H358.72V474.636H361.073C361.539 474.636 361.914 474.568 362.198 474.432C362.485 474.295 362.692 474.102 362.82 473.852C362.95 473.599 363.016 473.298 363.016 472.949C363.016 472.599 362.95 472.294 362.82 472.033C362.689 471.771 362.48 471.57 362.193 471.428C361.906 471.283 361.527 471.21 361.056 471.21H359.198V479H358.141ZM362.249 475.08L364.396 479H363.169L361.056 475.08H362.249ZM368.354 479.136C367.724 479.136 367.18 478.997 366.722 478.719C366.268 478.438 365.917 478.045 365.67 477.543C365.425 477.037 365.303 476.449 365.303 475.778C365.303 475.108 365.425 474.517 365.67 474.006C365.917 473.491 366.26 473.091 366.701 472.804C367.144 472.514 367.661 472.369 368.252 472.369C368.593 472.369 368.93 472.426 369.262 472.54C369.594 472.653 369.897 472.838 370.17 473.094C370.442 473.347 370.66 473.682 370.822 474.099C370.983 474.517 371.064 475.031 371.064 475.642V476.068H366.019V475.199H370.042C370.042 474.83 369.968 474.5 369.82 474.21C369.675 473.92 369.468 473.692 369.198 473.524C368.931 473.357 368.616 473.273 368.252 473.273C367.851 473.273 367.505 473.372 367.212 473.571C366.922 473.767 366.699 474.023 366.543 474.338C366.387 474.653 366.309 474.991 366.309 475.352V475.932C366.309 476.426 366.394 476.845 366.564 477.189C366.738 477.53 366.978 477.79 367.285 477.969C367.591 478.145 367.948 478.233 368.354 478.233C368.618 478.233 368.857 478.196 369.07 478.122C369.286 478.045 369.472 477.932 369.628 477.781C369.785 477.628 369.905 477.437 369.991 477.21L370.962 477.483C370.86 477.812 370.688 478.102 370.447 478.352C370.205 478.599 369.907 478.793 369.552 478.932C369.197 479.068 368.797 479.136 368.354 479.136ZM375.253 479.136C374.64 479.136 374.111 478.991 373.668 478.702C373.225 478.412 372.884 478.013 372.645 477.504C372.407 476.996 372.287 476.415 372.287 475.761C372.287 475.097 372.41 474.51 372.654 474.001C372.901 473.49 373.245 473.091 373.685 472.804C374.128 472.514 374.645 472.369 375.236 472.369C375.697 472.369 376.111 472.455 376.481 472.625C376.85 472.795 377.153 473.034 377.388 473.341C377.624 473.648 377.77 474.006 377.827 474.415H376.822C376.745 474.116 376.574 473.852 376.31 473.622C376.049 473.389 375.697 473.273 375.253 473.273C374.861 473.273 374.518 473.375 374.222 473.58C373.93 473.781 373.701 474.067 373.536 474.436C373.374 474.803 373.293 475.233 373.293 475.727C373.293 476.233 373.373 476.673 373.532 477.048C373.694 477.423 373.921 477.714 374.214 477.922C374.509 478.129 374.856 478.233 375.253 478.233C375.515 478.233 375.752 478.188 375.965 478.097C376.178 478.006 376.358 477.875 376.506 477.705C376.654 477.534 376.759 477.33 376.822 477.091H377.827C377.77 477.477 377.63 477.825 377.405 478.135C377.184 478.442 376.89 478.686 376.523 478.868C376.16 479.047 375.736 479.136 375.253 479.136ZM382.042 479.136C381.411 479.136 380.867 478.997 380.41 478.719C379.955 478.438 379.604 478.045 379.357 477.543C379.113 477.037 378.991 476.449 378.991 475.778C378.991 475.108 379.113 474.517 379.357 474.006C379.604 473.491 379.948 473.091 380.388 472.804C380.831 472.514 381.349 472.369 381.939 472.369C382.28 472.369 382.617 472.426 382.949 472.54C383.282 472.653 383.584 472.838 383.857 473.094C384.13 473.347 384.347 473.682 384.509 474.099C384.671 474.517 384.752 475.031 384.752 475.642V476.068H379.706V475.199H383.729C383.729 474.83 383.655 474.5 383.508 474.21C383.363 473.92 383.155 473.692 382.885 473.524C382.618 473.357 382.303 473.273 381.939 473.273C381.539 473.273 381.192 473.372 380.9 473.571C380.61 473.767 380.387 474.023 380.231 474.338C380.074 474.653 379.996 474.991 379.996 475.352V475.932C379.996 476.426 380.081 476.845 380.252 477.189C380.425 477.53 380.665 477.79 380.972 477.969C381.279 478.145 381.635 478.233 382.042 478.233C382.306 478.233 382.545 478.196 382.758 478.122C382.974 478.045 383.16 477.932 383.316 477.781C383.472 477.628 383.593 477.437 383.678 477.21L384.65 477.483C384.547 477.812 384.376 478.102 384.134 478.352C383.893 478.599 383.594 478.793 383.239 478.932C382.884 479.068 382.485 479.136 382.042 479.136ZM386.282 479V472.455H387.287V479H386.282ZM386.793 471.364C386.597 471.364 386.428 471.297 386.286 471.163C386.147 471.03 386.077 470.869 386.077 470.682C386.077 470.494 386.147 470.334 386.286 470.2C386.428 470.067 386.597 470 386.793 470C386.989 470 387.157 470.067 387.296 470.2C387.438 470.334 387.509 470.494 387.509 470.682C387.509 470.869 387.438 471.03 387.296 471.163C387.157 471.297 386.989 471.364 386.793 471.364ZM394.482 472.455L392.061 479H391.039L388.618 472.455H389.709L391.516 477.67H391.584L393.391 472.455H394.482ZM398.319 479.136C397.688 479.136 397.144 478.997 396.687 478.719C396.232 478.438 395.882 478.045 395.634 477.543C395.39 477.037 395.268 476.449 395.268 475.778C395.268 475.108 395.39 474.517 395.634 474.006C395.882 473.491 396.225 473.091 396.666 472.804C397.109 472.514 397.626 472.369 398.217 472.369C398.558 472.369 398.894 472.426 399.227 472.54C399.559 472.653 399.862 472.838 400.134 473.094C400.407 473.347 400.624 473.682 400.786 474.099C400.948 474.517 401.029 475.031 401.029 475.642V476.068H395.984V475.199H400.007C400.007 474.83 399.933 474.5 399.785 474.21C399.64 473.92 399.433 473.692 399.163 473.524C398.896 473.357 398.58 473.273 398.217 473.273C397.816 473.273 397.47 473.372 397.177 473.571C396.887 473.767 396.664 474.023 396.508 474.338C396.352 474.653 396.274 474.991 396.274 475.352V475.932C396.274 476.426 396.359 476.845 396.529 477.189C396.703 477.53 396.943 477.79 397.249 477.969C397.556 478.145 397.913 478.233 398.319 478.233C398.583 478.233 398.822 478.196 399.035 478.122C399.251 478.045 399.437 477.932 399.593 477.781C399.749 477.628 399.87 477.437 399.955 477.21L400.927 477.483C400.825 477.812 400.653 478.102 400.411 478.352C400.17 478.599 399.872 478.793 399.517 478.932C399.161 479.068 398.762 479.136 398.319 479.136ZM411.798 470.273H412.855V476.051C412.855 476.648 412.714 477.18 412.433 477.649C412.154 478.115 411.761 478.483 411.252 478.753C410.744 479.02 410.147 479.153 409.463 479.153C408.778 479.153 408.181 479.02 407.673 478.753C407.164 478.483 406.769 478.115 406.488 477.649C406.21 477.18 406.07 476.648 406.07 476.051V470.273H407.127V475.966C407.127 476.392 407.221 476.771 407.409 477.104C407.596 477.433 407.863 477.693 408.21 477.884C408.559 478.071 408.977 478.165 409.463 478.165C409.948 478.165 410.366 478.071 410.715 477.884C411.065 477.693 411.332 477.433 411.517 477.104C411.704 476.771 411.798 476.392 411.798 475.966V470.273ZM419.738 472.455C419.687 472.023 419.479 471.688 419.116 471.449C418.752 471.21 418.306 471.091 417.778 471.091C417.391 471.091 417.053 471.153 416.763 471.278C416.476 471.403 416.252 471.575 416.09 471.794C415.931 472.013 415.851 472.261 415.851 472.54C415.851 472.773 415.907 472.973 416.018 473.141C416.131 473.305 416.276 473.443 416.452 473.554C416.628 473.662 416.813 473.751 417.006 473.822C417.199 473.891 417.377 473.946 417.539 473.989L418.425 474.227C418.653 474.287 418.905 474.369 419.184 474.474C419.465 474.58 419.733 474.723 419.989 474.905C420.248 475.084 420.461 475.314 420.628 475.595C420.796 475.876 420.88 476.222 420.88 476.631C420.88 477.102 420.756 477.528 420.509 477.909C420.265 478.29 419.907 478.592 419.435 478.817C418.966 479.041 418.397 479.153 417.726 479.153C417.101 479.153 416.56 479.053 416.103 478.851C415.648 478.649 415.29 478.368 415.029 478.007C414.77 477.646 414.624 477.227 414.59 476.75H415.681C415.709 477.08 415.82 477.352 416.013 477.568C416.209 477.781 416.456 477.94 416.755 478.045C417.056 478.148 417.38 478.199 417.726 478.199C418.13 478.199 418.492 478.134 418.813 478.003C419.134 477.869 419.388 477.685 419.576 477.449C419.763 477.21 419.857 476.932 419.857 476.614C419.857 476.324 419.776 476.088 419.614 475.906C419.452 475.724 419.239 475.577 418.975 475.463C418.711 475.349 418.425 475.25 418.118 475.165L417.045 474.858C416.363 474.662 415.823 474.382 415.425 474.018C415.028 473.655 414.829 473.179 414.829 472.591C414.829 472.102 414.961 471.676 415.225 471.312C415.492 470.946 415.85 470.662 416.299 470.46C416.751 470.256 417.255 470.153 417.812 470.153C418.374 470.153 418.874 470.254 419.312 470.456C419.749 470.655 420.096 470.928 420.351 471.274C420.61 471.621 420.746 472.014 420.76 472.455H419.738ZM425.311 479H422.617V470.273H425.43C426.276 470.273 427.001 470.447 427.603 470.797C428.205 471.143 428.667 471.642 428.988 472.293C429.309 472.94 429.47 473.716 429.47 474.619C429.47 475.528 429.308 476.311 428.984 476.967C428.66 477.621 428.188 478.124 427.569 478.476C426.95 478.825 426.197 479 425.311 479ZM423.674 478.062H425.242C425.964 478.062 426.562 477.923 427.036 477.645C427.511 477.366 427.865 476.97 428.097 476.456C428.33 475.942 428.447 475.33 428.447 474.619C428.447 473.915 428.332 473.308 428.102 472.8C427.872 472.288 427.528 471.896 427.07 471.624C426.613 471.348 426.044 471.21 425.362 471.21H423.674V478.062ZM438.265 473H437.208C437.146 472.696 437.036 472.429 436.88 472.199C436.727 471.969 436.539 471.776 436.318 471.619C436.099 471.46 435.856 471.341 435.589 471.261C435.322 471.182 435.044 471.142 434.754 471.142C434.225 471.142 433.747 471.276 433.318 471.543C432.892 471.81 432.552 472.203 432.299 472.723C432.049 473.243 431.924 473.881 431.924 474.636C431.924 475.392 432.049 476.03 432.299 476.55C432.552 477.07 432.892 477.463 433.318 477.73C433.747 477.997 434.225 478.131 434.754 478.131C435.044 478.131 435.322 478.091 435.589 478.011C435.856 477.932 436.099 477.814 436.318 477.658C436.539 477.499 436.727 477.304 436.88 477.074C437.036 476.841 437.146 476.574 437.208 476.273H438.265C438.186 476.719 438.041 477.118 437.83 477.47C437.62 477.822 437.359 478.122 437.046 478.369C436.734 478.614 436.383 478.8 435.994 478.928C435.607 479.055 435.194 479.119 434.754 479.119C434.009 479.119 433.347 478.938 432.768 478.574C432.188 478.21 431.732 477.693 431.4 477.023C431.068 476.352 430.901 475.557 430.901 474.636C430.901 473.716 431.068 472.92 431.4 472.25C431.732 471.58 432.188 471.062 432.768 470.699C433.347 470.335 434.009 470.153 434.754 470.153C435.194 470.153 435.607 470.217 435.994 470.345C436.383 470.473 436.734 470.661 437.046 470.908C437.359 471.152 437.62 471.45 437.83 471.803C438.041 472.152 438.186 472.551 438.265 473Z" fill="#2C2C2C"/>
<path d="M362.823 656.366V659.829C362.823 663.651 359.72 666.737 355.914 666.737H315.937C312.114 666.737 309.029 663.651 309.029 659.829V656.383C309.029 652.56 312.131 649.457 315.954 649.457H355.914C359.72 649.457 362.823 652.543 362.823 656.366Z" fill="#F9A41A"/>
<path d="M359.977 639.086V642.549C359.977 646.371 356.874 649.457 353.069 649.457H313.091C309.269 649.457 306.183 646.371 306.183 642.549V639.103C306.183 635.28 309.286 632.177 313.109 632.177H353.069C356.874 632.177 359.977 635.263 359.977 639.086Z" fill="#F9A41A"/>
<path d="M290.566 662.04C311.215 662.04 327.954 645.301 327.954 624.651C327.954 604.002 311.215 587.263 290.566 587.263C269.917 587.263 253.177 604.002 253.177 624.651C253.177 645.301 269.917 662.04 290.566 662.04Z" fill="#F9A41A"/>
<path d="M298.537 666.737C319.186 666.737 335.926 649.998 335.926 629.349C335.926 608.699 319.186 591.96 298.537 591.96C277.888 591.96 261.149 608.699 261.149 629.349C261.149 649.998 277.888 666.737 298.537 666.737Z" fill="#FBE063"/>
<path d="M298.537 653.966C312.133 653.966 323.154 642.944 323.154 629.349C323.154 615.753 312.133 604.731 298.537 604.731C284.942 604.731 273.92 615.753 273.92 629.349C273.92 642.944 284.942 653.966 298.537 653.966Z" fill="#F9A41A"/>
<path d="M292.074 617.554C293.412 616.097 295.28 615.343 297.697 615.326V612.926H299.412V615.274C301.794 615.446 303.629 616.149 304.914 617.383C306.2 618.617 306.869 620.263 306.92 622.303H303.766C303.68 621.394 303.44 620.606 303.029 619.954C302.274 618.737 301.074 618.103 299.412 618.051V626.794C302.189 627.566 304.092 628.303 305.086 628.989C306.697 630.12 307.52 631.783 307.52 633.994C307.52 637.183 306.474 639.446 304.4 640.8C303.252 641.537 301.589 642.034 299.412 642.274V645.771H297.697V642.274C294.2 642.051 291.834 640.817 290.583 638.571C289.897 637.354 289.554 635.726 289.554 633.651H292.743C292.846 635.297 293.103 636.497 293.514 637.251C294.252 638.606 295.64 639.36 297.646 639.531V629.743C295.057 629.246 293.137 628.423 291.903 627.274C290.669 626.126 290.052 624.531 290.052 622.491C290.069 620.657 290.737 619.011 292.074 617.554ZM294.492 625.063C295.28 625.731 296.343 626.194 297.663 626.469V618.017C296.086 618.069 294.972 618.549 294.303 619.457C293.634 620.349 293.309 621.291 293.309 622.286C293.309 623.451 293.703 624.377 294.492 625.063ZM303.663 637.389C304.074 636.669 304.28 635.829 304.28 634.886C304.28 633.394 303.732 632.246 302.617 631.474C301.983 631.011 300.92 630.583 299.412 630.171V639.634C301.469 639.531 302.874 638.777 303.663 637.389Z" fill="#FBE063"/>
<path d="M266.105 707V695.364H268.565V700.165H273.56V695.364H276.014V707H273.56V702.193H268.565V707H266.105ZM281.94 707.17C281.058 707.17 280.295 706.983 279.651 706.608C279.01 706.229 278.516 705.703 278.168 705.028C277.819 704.35 277.645 703.564 277.645 702.67C277.645 701.769 277.819 700.981 278.168 700.307C278.516 699.629 279.01 699.102 279.651 698.727C280.295 698.348 281.058 698.159 281.94 698.159C282.823 698.159 283.584 698.348 284.224 698.727C284.868 699.102 285.365 699.629 285.713 700.307C286.062 700.981 286.236 701.769 286.236 702.67C286.236 703.564 286.062 704.35 285.713 705.028C285.365 705.703 284.868 706.229 284.224 706.608C283.584 706.983 282.823 707.17 281.94 707.17ZM281.952 705.295C282.353 705.295 282.688 705.182 282.957 704.955C283.226 704.723 283.429 704.409 283.565 704.011C283.705 703.614 283.776 703.161 283.776 702.653C283.776 702.146 283.705 701.693 283.565 701.295C283.429 700.898 283.226 700.583 282.957 700.352C282.688 700.121 282.353 700.006 281.952 700.006C281.546 700.006 281.205 700.121 280.929 700.352C280.656 700.583 280.45 700.898 280.31 701.295C280.173 701.693 280.105 702.146 280.105 702.653C280.105 703.161 280.173 703.614 280.31 704.011C280.45 704.409 280.656 704.723 280.929 704.955C281.205 705.182 281.546 705.295 281.952 705.295ZM290.23 695.364V707H287.81V695.364H290.23ZM295.385 707.142C294.722 707.142 294.122 706.972 293.584 706.631C293.05 706.286 292.625 705.78 292.311 705.114C292 704.443 291.845 703.621 291.845 702.648C291.845 701.648 292.006 700.816 292.328 700.153C292.65 699.487 293.078 698.989 293.612 698.659C294.15 698.326 294.739 698.159 295.379 698.159C295.868 698.159 296.275 698.242 296.601 698.409C296.93 698.572 297.196 698.777 297.396 699.023C297.601 699.265 297.756 699.504 297.862 699.739H297.936V695.364H300.351V707H297.964V705.602H297.862C297.749 705.845 297.588 706.085 297.379 706.324C297.175 706.559 296.908 706.754 296.578 706.909C296.252 707.064 295.855 707.142 295.385 707.142ZM296.152 705.216C296.542 705.216 296.872 705.11 297.141 704.898C297.413 704.682 297.622 704.381 297.766 703.994C297.913 703.608 297.987 703.155 297.987 702.636C297.987 702.117 297.915 701.667 297.771 701.284C297.627 700.902 297.419 700.606 297.146 700.398C296.874 700.189 296.542 700.085 296.152 700.085C295.754 700.085 295.419 700.193 295.146 700.409C294.874 700.625 294.667 700.924 294.527 701.307C294.387 701.689 294.317 702.133 294.317 702.636C294.317 703.144 294.387 703.593 294.527 703.983C294.671 704.369 294.877 704.672 295.146 704.892C295.419 705.108 295.754 705.216 296.152 705.216ZM313.277 695.364H315.737V702.92C315.737 703.769 315.535 704.511 315.129 705.148C314.728 705.784 314.165 706.28 313.442 706.636C312.718 706.989 311.875 707.165 310.913 707.165C309.947 707.165 309.103 706.989 308.379 706.636C307.656 706.28 307.093 705.784 306.692 705.148C306.29 704.511 306.089 703.769 306.089 702.92V695.364H308.55V702.71C308.55 703.153 308.646 703.547 308.839 703.892C309.036 704.237 309.313 704.508 309.669 704.705C310.025 704.902 310.44 705 310.913 705C311.391 705 311.805 704.902 312.158 704.705C312.514 704.508 312.788 704.237 312.982 703.892C313.179 703.547 313.277 703.153 313.277 702.71V695.364ZM324.074 698.71C324.028 698.252 323.833 697.896 323.489 697.642C323.144 697.388 322.676 697.261 322.085 697.261C321.684 697.261 321.345 697.318 321.068 697.432C320.792 697.542 320.58 697.695 320.432 697.892C320.288 698.089 320.216 698.312 320.216 698.562C320.208 698.771 320.252 698.953 320.347 699.108C320.445 699.263 320.58 699.398 320.75 699.511C320.92 699.621 321.117 699.718 321.341 699.801C321.564 699.881 321.803 699.949 322.057 700.006L323.102 700.256C323.61 700.369 324.076 700.521 324.5 700.71C324.924 700.9 325.292 701.133 325.602 701.409C325.913 701.686 326.153 702.011 326.324 702.386C326.498 702.761 326.587 703.191 326.591 703.676C326.587 704.388 326.405 705.006 326.045 705.528C325.689 706.047 325.174 706.451 324.5 706.739C323.83 707.023 323.021 707.165 322.074 707.165C321.134 707.165 320.316 707.021 319.619 706.733C318.926 706.445 318.384 706.019 317.994 705.455C317.608 704.886 317.405 704.184 317.386 703.347H319.767C319.794 703.737 319.905 704.062 320.102 704.324C320.303 704.581 320.57 704.777 320.903 704.909C321.241 705.038 321.621 705.102 322.045 705.102C322.462 705.102 322.824 705.042 323.131 704.92C323.441 704.799 323.682 704.631 323.852 704.415C324.023 704.199 324.108 703.951 324.108 703.67C324.108 703.409 324.03 703.189 323.875 703.011C323.723 702.833 323.5 702.682 323.205 702.557C322.913 702.432 322.555 702.318 322.131 702.216L320.864 701.898C319.883 701.659 319.108 701.286 318.54 700.778C317.972 700.271 317.689 699.587 317.693 698.727C317.689 698.023 317.877 697.407 318.256 696.881C318.638 696.354 319.163 695.943 319.83 695.648C320.496 695.352 321.254 695.205 322.102 695.205C322.966 695.205 323.72 695.352 324.364 695.648C325.011 695.943 325.515 696.354 325.875 696.881C326.235 697.407 326.42 698.017 326.432 698.71H324.074ZM332.371 707H328.246V695.364H332.405C333.575 695.364 334.583 695.597 335.428 696.062C336.272 696.525 336.922 697.189 337.376 698.057C337.835 698.924 338.064 699.962 338.064 701.17C338.064 702.383 337.835 703.424 337.376 704.295C336.922 705.167 336.268 705.835 335.416 706.301C334.568 706.767 333.553 707 332.371 707ZM330.706 704.892H332.268C332.996 704.892 333.607 704.763 334.104 704.506C334.604 704.244 334.979 703.841 335.229 703.295C335.482 702.746 335.609 702.038 335.609 701.17C335.609 700.311 335.482 699.608 335.229 699.062C334.979 698.517 334.606 698.116 334.109 697.858C333.613 697.6 333.001 697.472 332.274 697.472H330.706V704.892ZM350.153 699.438H347.665C347.619 699.116 347.527 698.83 347.386 698.58C347.246 698.326 347.066 698.11 346.847 697.932C346.627 697.754 346.373 697.617 346.085 697.523C345.801 697.428 345.492 697.381 345.159 697.381C344.557 697.381 344.032 697.53 343.585 697.83C343.138 698.125 342.792 698.557 342.545 699.125C342.299 699.689 342.176 700.375 342.176 701.182C342.176 702.011 342.299 702.708 342.545 703.273C342.795 703.837 343.144 704.263 343.591 704.551C344.038 704.839 344.555 704.983 345.142 704.983C345.472 704.983 345.777 704.939 346.057 704.852C346.341 704.765 346.593 704.638 346.812 704.472C347.032 704.301 347.214 704.095 347.358 703.852C347.506 703.61 347.608 703.333 347.665 703.023L350.153 703.034C350.089 703.568 349.928 704.083 349.67 704.58C349.417 705.072 349.074 705.513 348.642 705.903C348.214 706.29 347.703 706.597 347.108 706.824C346.517 707.047 345.848 707.159 345.102 707.159C344.064 707.159 343.136 706.924 342.318 706.455C341.504 705.985 340.86 705.305 340.386 704.415C339.917 703.525 339.682 702.447 339.682 701.182C339.682 699.913 339.92 698.833 340.398 697.943C340.875 697.053 341.523 696.375 342.341 695.909C343.159 695.439 344.08 695.205 345.102 695.205C345.777 695.205 346.402 695.299 346.977 695.489C347.557 695.678 348.07 695.955 348.517 696.318C348.964 696.678 349.328 697.119 349.608 697.642C349.892 698.165 350.074 698.763 350.153 699.438Z" fill="#2C2C2C"/>
<path d="M454.186 655.372C466.991 655.372 477.372 644.991 477.372 632.186C477.372 619.381 466.991 609 454.186 609C441.381 609 431 619.381 431 632.186C431 644.991 441.381 655.372 454.186 655.372Z" fill="#F9A41A"/>
<path d="M458.528 659.714C471.333 659.714 481.714 649.334 481.714 636.528C481.714 623.723 471.333 613.342 458.528 613.342C445.723 613.342 435.342 623.723 435.342 636.528C435.342 649.334 445.723 659.714 458.528 659.714Z" fill="#FBE063"/>
<path d="M458.528 651.792C466.958 651.792 473.792 644.958 473.792 636.528C473.792 628.098 466.958 621.264 458.528 621.264C450.098 621.264 443.264 628.098 443.264 636.528C443.264 644.958 450.098 651.792 458.528 651.792Z" fill="#F9A41A"/>
<path d="M459.854 637.456H455.363C454.899 637.456 454.534 637.092 454.534 636.628V629.335C454.534 628.871 454.899 628.507 455.363 628.507H459.854C462.323 628.507 464.329 630.512 464.329 632.982C464.329 634.191 463.865 635.318 463.003 636.147C462.158 636.992 461.031 637.456 459.854 637.456ZM456.175 635.799H459.837C460.583 635.799 461.296 635.501 461.826 634.97C462.373 634.44 462.655 633.744 462.655 632.982C462.655 631.424 461.395 630.164 459.837 630.164H456.175V635.799Z" fill="#FBE063"/>
<path d="M459.854 644.765H455.363C454.899 644.765 454.534 644.401 454.534 643.937V636.644C454.534 636.18 454.899 635.816 455.363 635.816H459.854C462.323 635.816 464.329 637.821 464.329 640.29C464.329 641.5 463.865 642.627 463.003 643.456C462.158 644.285 461.031 644.765 459.854 644.765ZM456.175 643.108H459.837C460.583 643.108 461.296 642.81 461.826 642.279C462.373 641.749 462.655 641.053 462.655 640.29C462.655 638.733 461.395 637.473 459.837 637.473H456.175V643.108Z" fill="#FBE063"/>
<path d="M455.346 644.765H453.556C453.092 644.765 452.728 644.401 452.728 643.937C452.728 643.472 453.092 643.108 453.556 643.108H455.346C455.81 643.108 456.175 643.472 456.175 643.937C456.175 644.401 455.81 644.765 455.346 644.765Z" fill="#FBE063"/>
<path d="M455.346 630.164H453.556C453.092 630.164 452.728 629.799 452.728 629.335C452.728 628.871 453.092 628.507 453.556 628.507H455.346C455.81 628.507 456.175 628.871 456.175 629.335C456.175 629.799 455.81 630.164 455.346 630.164Z" fill="#FBE063"/>
<path d="M457.898 629.965C457.434 629.965 457.07 629.601 457.07 629.137V627.347C457.07 626.883 457.434 626.518 457.898 626.518C458.362 626.518 458.727 626.883 458.727 627.347V629.137C458.727 629.601 458.346 629.965 457.898 629.965Z" fill="#FBE063"/>
<path d="M458.296 646.555C457.832 646.555 457.468 646.19 457.468 645.726V643.937C457.468 643.472 457.832 643.108 458.296 643.108C458.76 643.108 459.125 643.472 459.125 643.937V645.726C459.125 646.174 458.76 646.555 458.296 646.555Z" fill="#FBE063"/>
<path d="M487.186 638.372C499.991 638.372 510.372 627.991 510.372 615.186C510.372 602.381 499.991 592 487.186 592C474.381 592 464 602.381 464 615.186C464 627.991 474.381 638.372 487.186 638.372Z" fill="#348EE8"/>
<path d="M491.528 642.714C504.333 642.714 514.714 632.334 514.714 619.528C514.714 606.723 504.333 596.342 491.528 596.342C478.723 596.342 468.342 606.723 468.342 619.528C468.342 632.334 478.723 642.714 491.528 642.714Z" fill="#6CBDFF"/>
<path d="M491.528 634.792C499.958 634.792 506.792 627.958 506.792 619.528C506.792 611.098 499.958 604.264 491.528 604.264C483.098 604.264 476.264 611.098 476.264 619.528C476.264 627.958 483.098 634.792 491.528 634.792Z" fill="#348EE8"/>
<path d="M520.186 657.372C532.991 657.372 543.372 646.991 543.372 634.186C543.372 621.381 532.991 611 520.186 611C507.381 611 497 621.381 497 634.186C497 646.991 507.381 657.372 520.186 657.372Z" fill="#26C666"/>
<path d="M524.528 661.714C537.333 661.714 547.714 651.334 547.714 638.528C547.714 625.723 537.333 615.342 524.528 615.342C511.723 615.342 501.342 625.723 501.342 638.528C501.342 651.334 511.723 661.714 524.528 661.714Z" fill="#54E28E"/>
<path d="M524.528 653.792C532.958 653.792 539.792 646.958 539.792 638.528C539.792 630.098 532.958 623.264 524.528 623.264C516.098 623.264 509.264 630.098 509.264 638.528C509.264 646.958 516.098 653.792 524.528 653.792Z" fill="#26C666"/>
<path d="M500.21 620.021L492.834 624.524C492.741 624.579 492.612 624.579 492.51 624.524L485.143 620.021C485.004 619.937 484.958 619.743 485.042 619.604L492.408 607.16C492.528 606.947 492.825 606.947 492.936 607.16L500.312 619.604C500.404 619.752 500.349 619.937 500.21 620.021Z" fill="#6CBDFF"/>
<path d="M499.218 622.524L492.528 632.114C492.408 632.281 492.148 632.281 492.028 632.114L485.319 622.524C485.134 622.246 485.449 621.903 485.736 622.08L492.102 625.999C492.204 626.055 492.334 626.055 492.426 625.999L498.801 622.08C499.079 621.903 499.403 622.246 499.218 622.524Z" fill="#6CBDFF"/>
<path d="M531.487 634.824C531.026 635.293 530.022 636.304 529.516 636.825C529.338 637.018 529.226 636.996 529.04 636.825C527.783 635.546 525.091 632.875 524.979 632.779L521.007 636.832C520.874 636.966 520.65 636.974 520.509 636.832L518.508 634.839C518.374 634.705 518.374 634.482 518.508 634.348L524.749 628.1C524.882 627.967 525.113 627.967 525.247 628.1L531.48 634.333C531.621 634.467 531.621 634.69 531.487 634.824Z" fill="white"/>
<path d="M531.502 643.251L525.232 649.506C525.098 649.64 524.882 649.64 524.756 649.506L518.434 643.266C518.3 643.132 518.3 642.909 518.434 642.783C519.11 642.128 520.286 641.005 520.42 640.841C520.605 640.626 520.739 640.618 520.948 640.826C522.19 642.098 524.89 644.768 525.068 644.932C525.261 644.687 527.902 641.979 529.025 640.834C529.233 640.626 529.352 640.64 529.553 640.841C530.2 641.503 530.862 642.143 531.502 642.768C531.636 642.902 531.628 643.117 531.502 643.251Z" fill="white"/>
<path d="M527.292 639.012L525.031 641.183C524.949 641.265 524.823 641.265 524.741 641.183C524.191 640.603 522.904 639.272 522.629 639.004C522.517 638.9 522.458 638.803 522.592 638.662C523.328 637.918 524.057 637.182 524.756 636.468C524.838 636.386 524.964 636.386 525.046 636.468L527.285 638.721C527.374 638.803 527.374 638.93 527.292 639.012Z" fill="white"/>
<path d="M535.935 639.034C535.459 639.48 533.971 640.893 533.763 641.116C533.607 641.288 533.495 641.273 533.339 641.109C532.647 640.41 531.948 639.718 531.256 639.026C531.1 638.878 531.078 638.774 531.242 638.603C531.956 637.903 532.655 637.204 533.361 636.498C533.465 636.386 533.562 636.304 533.703 636.446C534.321 637.07 535.533 638.312 535.942 638.744C536.024 638.833 536.017 638.96 535.935 639.034Z" fill="white"/>
<path d="M518.88 638.811C518.828 638.878 518.783 638.952 518.731 639.004C518.032 639.711 517.326 640.402 516.626 641.109C516.463 641.273 516.359 641.258 516.203 641.102C515.518 640.402 514.819 639.703 514.12 639.019C513.956 638.855 513.964 638.751 514.12 638.595C514.827 637.896 515.526 637.197 516.225 636.49C516.351 636.364 516.448 636.319 516.597 636.468C517.303 637.197 518.025 637.911 518.739 638.632C518.791 638.684 518.828 638.744 518.88 638.811Z" fill="white"/>
<path d="M435.761 698.71C435.716 698.252 435.521 697.896 435.176 697.642C434.831 697.388 434.364 697.261 433.773 697.261C433.371 697.261 433.032 697.318 432.756 697.432C432.479 697.542 432.267 697.695 432.119 697.892C431.975 698.089 431.903 698.312 431.903 698.562C431.896 698.771 431.939 698.953 432.034 699.108C432.133 699.263 432.267 699.398 432.438 699.511C432.608 699.621 432.805 699.718 433.028 699.801C433.252 699.881 433.491 699.949 433.744 700.006L434.79 700.256C435.297 700.369 435.763 700.521 436.188 700.71C436.612 700.9 436.979 701.133 437.29 701.409C437.6 701.686 437.841 702.011 438.011 702.386C438.186 702.761 438.275 703.191 438.278 703.676C438.275 704.388 438.093 705.006 437.733 705.528C437.377 706.047 436.862 706.451 436.188 706.739C435.517 707.023 434.708 707.165 433.761 707.165C432.822 707.165 432.004 707.021 431.307 706.733C430.614 706.445 430.072 706.019 429.682 705.455C429.295 704.886 429.093 704.184 429.074 703.347H431.455C431.481 703.737 431.593 704.062 431.79 704.324C431.991 704.581 432.258 704.777 432.591 704.909C432.928 705.038 433.309 705.102 433.733 705.102C434.15 705.102 434.511 705.042 434.818 704.92C435.129 704.799 435.369 704.631 435.54 704.415C435.71 704.199 435.795 703.951 435.795 703.67C435.795 703.409 435.718 703.189 435.562 703.011C435.411 702.833 435.188 702.682 434.892 702.557C434.6 702.432 434.242 702.318 433.818 702.216L432.551 701.898C431.57 701.659 430.795 701.286 430.227 700.778C429.659 700.271 429.377 699.587 429.381 698.727C429.377 698.023 429.564 697.407 429.943 696.881C430.326 696.354 430.85 695.943 431.517 695.648C432.184 695.352 432.941 695.205 433.79 695.205C434.653 695.205 435.407 695.352 436.051 695.648C436.699 695.943 437.203 696.354 437.562 696.881C437.922 697.407 438.108 698.017 438.119 698.71H435.761ZM441.609 707L439.234 698.273H441.683L443.036 704.136H443.115L444.524 698.273H446.928L448.359 704.102H448.433L449.763 698.273H452.206L449.837 707H447.274L445.774 701.511H445.666L444.166 707H441.609ZM455.986 707.165C455.429 707.165 454.933 707.068 454.497 706.875C454.062 706.678 453.717 706.388 453.463 706.006C453.213 705.619 453.088 705.138 453.088 704.562C453.088 704.078 453.177 703.67 453.355 703.341C453.533 703.011 453.776 702.746 454.082 702.545C454.389 702.345 454.738 702.193 455.128 702.091C455.522 701.989 455.935 701.917 456.366 701.875C456.874 701.822 457.283 701.773 457.594 701.727C457.904 701.678 458.13 701.606 458.27 701.511C458.41 701.417 458.48 701.277 458.48 701.091V701.057C458.48 700.697 458.366 700.419 458.139 700.222C457.916 700.025 457.598 699.926 457.185 699.926C456.749 699.926 456.402 700.023 456.145 700.216C455.887 700.405 455.717 700.644 455.634 700.932L453.395 700.75C453.509 700.22 453.732 699.761 454.065 699.375C454.399 698.985 454.829 698.686 455.355 698.477C455.885 698.265 456.499 698.159 457.196 698.159C457.681 698.159 458.145 698.216 458.588 698.33C459.035 698.443 459.431 698.619 459.776 698.858C460.124 699.097 460.399 699.403 460.599 699.778C460.8 700.15 460.901 700.595 460.901 701.114V707H458.605V705.79H458.537C458.397 706.062 458.209 706.303 457.974 706.511C457.74 706.716 457.457 706.877 457.128 706.994C456.798 707.108 456.418 707.165 455.986 707.165ZM456.679 705.494C457.035 705.494 457.349 705.424 457.622 705.284C457.895 705.14 458.109 704.947 458.264 704.705C458.42 704.462 458.497 704.187 458.497 703.881V702.955C458.421 703.004 458.317 703.049 458.185 703.091C458.056 703.129 457.91 703.165 457.747 703.199C457.584 703.229 457.421 703.258 457.259 703.284C457.096 703.307 456.948 703.328 456.815 703.347C456.531 703.388 456.283 703.455 456.071 703.545C455.859 703.636 455.694 703.759 455.577 703.915C455.459 704.066 455.401 704.256 455.401 704.483C455.401 704.812 455.52 705.064 455.759 705.239C456.001 705.409 456.308 705.494 456.679 705.494ZM462.778 710.273V698.273H465.165V699.739H465.273C465.379 699.504 465.532 699.265 465.733 699.023C465.938 698.777 466.203 698.572 466.528 698.409C466.858 698.242 467.267 698.159 467.756 698.159C468.392 698.159 468.979 698.326 469.517 698.659C470.055 698.989 470.485 699.487 470.807 700.153C471.129 700.816 471.29 701.648 471.29 702.648C471.29 703.621 471.133 704.443 470.818 705.114C470.508 705.78 470.083 706.286 469.545 706.631C469.011 706.972 468.413 707.142 467.75 707.142C467.28 707.142 466.881 707.064 466.551 706.909C466.225 706.754 465.958 706.559 465.75 706.324C465.542 706.085 465.383 705.845 465.273 705.602H465.199V710.273H462.778ZM465.148 702.636C465.148 703.155 465.22 703.608 465.364 703.994C465.508 704.381 465.716 704.682 465.989 704.898C466.261 705.11 466.593 705.216 466.983 705.216C467.377 705.216 467.71 705.108 467.983 704.892C468.256 704.672 468.462 704.369 468.602 703.983C468.746 703.593 468.818 703.144 468.818 702.636C468.818 702.133 468.748 701.689 468.608 701.307C468.468 700.924 468.261 700.625 467.989 700.409C467.716 700.193 467.381 700.085 466.983 700.085C466.589 700.085 466.256 700.189 465.983 700.398C465.714 700.606 465.508 700.902 465.364 701.284C465.22 701.667 465.148 702.117 465.148 702.636ZM481.249 698.273V700.091H475.993V698.273H481.249ZM477.186 696.182H479.607V704.318C479.607 704.542 479.641 704.716 479.709 704.841C479.777 704.962 479.872 705.047 479.993 705.097C480.118 705.146 480.262 705.17 480.425 705.17C480.538 705.17 480.652 705.161 480.766 705.142C480.879 705.119 480.966 705.102 481.027 705.091L481.408 706.892C481.286 706.93 481.116 706.973 480.896 707.023C480.677 707.076 480.41 707.108 480.095 707.119C479.512 707.142 479 707.064 478.561 706.886C478.125 706.708 477.786 706.432 477.544 706.057C477.302 705.682 477.182 705.208 477.186 704.636V696.182ZM486.675 707.17C485.792 707.17 485.029 706.983 484.385 706.608C483.745 706.229 483.25 705.703 482.902 705.028C482.554 704.35 482.379 703.564 482.379 702.67C482.379 701.769 482.554 700.981 482.902 700.307C483.25 699.629 483.745 699.102 484.385 698.727C485.029 698.348 485.792 698.159 486.675 698.159C487.557 698.159 488.319 698.348 488.959 698.727C489.603 699.102 490.099 699.629 490.447 700.307C490.796 700.981 490.97 701.769 490.97 702.67C490.97 703.564 490.796 704.35 490.447 705.028C490.099 705.703 489.603 706.229 488.959 706.608C488.319 706.983 487.557 707.17 486.675 707.17ZM486.686 705.295C487.088 705.295 487.423 705.182 487.692 704.955C487.961 704.723 488.163 704.409 488.3 704.011C488.44 703.614 488.51 703.161 488.51 702.653C488.51 702.146 488.44 701.693 488.3 701.295C488.163 700.898 487.961 700.583 487.692 700.352C487.423 700.121 487.088 700.006 486.686 700.006C486.281 700.006 485.94 700.121 485.663 700.352C485.391 700.583 485.184 700.898 485.044 701.295C484.908 701.693 484.839 702.146 484.839 702.653C484.839 703.161 484.908 703.614 485.044 704.011C485.184 704.409 485.391 704.723 485.663 704.955C485.94 705.182 486.281 705.295 486.686 705.295ZM506.56 699.438H504.071C504.026 699.116 503.933 698.83 503.793 698.58C503.652 698.326 503.473 698.11 503.253 697.932C503.033 697.754 502.779 697.617 502.491 697.523C502.207 697.428 501.899 697.381 501.565 697.381C500.963 697.381 500.438 697.53 499.991 697.83C499.545 698.125 499.198 698.557 498.952 699.125C498.705 699.689 498.582 700.375 498.582 701.182C498.582 702.011 498.705 702.708 498.952 703.273C499.202 703.837 499.55 704.263 499.997 704.551C500.444 704.839 500.961 704.983 501.548 704.983C501.878 704.983 502.183 704.939 502.463 704.852C502.747 704.765 502.999 704.638 503.219 704.472C503.438 704.301 503.62 704.095 503.764 703.852C503.912 703.61 504.014 703.333 504.071 703.023L506.56 703.034C506.495 703.568 506.334 704.083 506.077 704.58C505.823 705.072 505.48 705.513 505.048 705.903C504.62 706.29 504.109 706.597 503.514 706.824C502.923 707.047 502.255 707.159 501.509 707.159C500.471 707.159 499.543 706.924 498.724 706.455C497.91 705.985 497.266 705.305 496.793 704.415C496.323 703.525 496.088 702.447 496.088 701.182C496.088 699.913 496.327 698.833 496.804 697.943C497.281 697.053 497.929 696.375 498.747 695.909C499.565 695.439 500.486 695.205 501.509 695.205C502.183 695.205 502.808 695.299 503.384 695.489C503.963 695.678 504.476 695.955 504.923 696.318C505.37 696.678 505.734 697.119 506.014 697.642C506.298 698.165 506.48 698.763 506.56 699.438ZM508.278 707V698.273H510.625V699.795H510.716C510.875 699.254 511.142 698.845 511.517 698.568C511.892 698.288 512.324 698.148 512.812 698.148C512.934 698.148 513.064 698.155 513.205 698.17C513.345 698.186 513.468 698.206 513.574 698.233V700.381C513.46 700.347 513.303 700.316 513.102 700.29C512.902 700.263 512.718 700.25 512.551 700.25C512.195 700.25 511.877 700.328 511.597 700.483C511.32 700.634 511.1 700.847 510.938 701.119C510.778 701.392 510.699 701.706 510.699 702.062V707H508.278ZM516.585 710.273C516.278 710.273 515.991 710.248 515.722 710.199C515.456 710.153 515.237 710.095 515.062 710.023L515.608 708.216C515.892 708.303 516.148 708.35 516.375 708.358C516.606 708.366 516.805 708.313 516.972 708.199C517.142 708.085 517.28 707.892 517.386 707.619L517.528 707.25L514.398 698.273H516.943L518.75 704.682H518.841L520.665 698.273H523.227L519.835 707.943C519.672 708.413 519.451 708.822 519.17 709.17C518.894 709.523 518.544 709.794 518.119 709.983C517.695 710.176 517.184 710.273 516.585 710.273ZM524.466 710.273V698.273H526.852V699.739H526.96C527.066 699.504 527.22 699.265 527.42 699.023C527.625 698.777 527.89 698.572 528.216 698.409C528.545 698.242 528.955 698.159 529.443 698.159C530.08 698.159 530.667 698.326 531.205 698.659C531.742 698.989 532.172 699.487 532.494 700.153C532.816 700.816 532.977 701.648 532.977 702.648C532.977 703.621 532.82 704.443 532.506 705.114C532.195 705.78 531.771 706.286 531.233 706.631C530.699 706.972 530.1 707.142 529.438 707.142C528.968 707.142 528.568 707.064 528.239 706.909C527.913 706.754 527.646 706.559 527.438 706.324C527.229 706.085 527.07 705.845 526.96 705.602H526.886V710.273H524.466ZM526.835 702.636C526.835 703.155 526.907 703.608 527.051 703.994C527.195 704.381 527.403 704.682 527.676 704.898C527.949 705.11 528.28 705.216 528.67 705.216C529.064 705.216 529.398 705.108 529.67 704.892C529.943 704.672 530.15 704.369 530.29 703.983C530.434 703.593 530.506 703.144 530.506 702.636C530.506 702.133 530.436 701.689 530.295 701.307C530.155 700.924 529.949 700.625 529.676 700.409C529.403 700.193 529.068 700.085 528.67 700.085C528.277 700.085 527.943 700.189 527.67 700.398C527.402 700.606 527.195 700.902 527.051 701.284C526.907 701.667 526.835 702.117 526.835 702.636ZM539.233 698.273V700.091H533.977V698.273H539.233ZM535.17 696.182H537.591V704.318C537.591 704.542 537.625 704.716 537.693 704.841C537.761 704.962 537.856 705.047 537.977 705.097C538.102 705.146 538.246 705.17 538.409 705.17C538.523 705.17 538.636 705.161 538.75 705.142C538.864 705.119 538.951 705.102 539.011 705.091L539.392 706.892C539.271 706.93 539.1 706.973 538.881 707.023C538.661 707.076 538.394 707.108 538.08 707.119C537.496 707.142 536.985 707.064 536.545 706.886C536.11 706.708 535.771 706.432 535.528 706.057C535.286 705.682 535.167 705.208 535.17 704.636V696.182ZM544.659 707.17C543.777 707.17 543.013 706.983 542.369 706.608C541.729 706.229 541.235 705.703 540.886 705.028C540.538 704.35 540.364 703.564 540.364 702.67C540.364 701.769 540.538 700.981 540.886 700.307C541.235 699.629 541.729 699.102 542.369 698.727C543.013 698.348 543.777 698.159 544.659 698.159C545.542 698.159 546.303 698.348 546.943 698.727C547.587 699.102 548.083 699.629 548.432 700.307C548.78 700.981 548.955 701.769 548.955 702.67C548.955 703.564 548.78 704.35 548.432 705.028C548.083 705.703 547.587 706.229 546.943 706.608C546.303 706.983 545.542 707.17 544.659 707.17ZM544.67 705.295C545.072 705.295 545.407 705.182 545.676 704.955C545.945 704.723 546.148 704.409 546.284 704.011C546.424 703.614 546.494 703.161 546.494 702.653C546.494 702.146 546.424 701.693 546.284 701.295C546.148 700.898 545.945 700.583 545.676 700.352C545.407 700.121 545.072 700.006 544.67 700.006C544.265 700.006 543.924 700.121 543.648 700.352C543.375 700.583 543.169 700.898 543.028 701.295C542.892 701.693 542.824 702.146 542.824 702.653C542.824 703.161 542.892 703.614 543.028 704.011C543.169 704.409 543.375 704.723 543.648 704.955C543.924 705.182 544.265 705.295 544.67 705.295Z" fill="#2C2C2C"/>
</svg>
